<?xml version="1.0" standalone="no"?>
<!DOCTYPE svg PUBLIC "-//W3C//DTD SVG 1.1//EN" "http://www.w3.org/Graphics/SVG/1.1/DTD/svg11.dtd" >
<svg xmlns="http://www.w3.org/2000/svg" xmlns:xlink="http://www.w3.org/1999/xlink" version="1.1">
<metadata>
Created by FontForge 20170910 at Sat Apr  9 19:36:39 2011
 By Jimmy Wärting
Copyright (c) 2011 by Aurele Sack. www.lineto.com. All rights reserved.
</metadata>
<defs>
<font id="BrownStd-Bold" horiz-adv-x="590" >
  <font-face 
    font-family="BrownStd"
    font-weight="700"
    font-stretch="normal"
    units-per-em="1000"
    panose-1="2 1 8 4 1 1 1 1 1 2"
    ascent="750"
    descent="-250"
    x-height="485"
    cap-height="700"
    bbox="-105 -250 1405 960"
    underline-thickness="80"
    underline-position="-100"
    stemh="120"
    stemv="130"
    unicode-range="U+000D-FB04"
  />
<missing-glyph horiz-adv-x="570" 
d="M75 0v700h420v-700h-420zM195 585v-470h180v470h-180z" />
    <glyph glyph-name="f_f_l" unicode="ffl" horiz-adv-x="1090" 
d="M795 711l-20 -111c-11 3 -27 5 -39 5c-32 0 -57 -9 -73 -28c-11 -14 -18 -32 -18 -77v-15h240v225h130v-710h-130v375h-240v-375h-130v375h-240v-375h-130v375h-125v110h125v20c0 78 18 125 52 158s85 57 151 57c26 0 50 -2 77 -9l-20 -111c-11 3 -27 5 -39 5
c-32 0 -57 -9 -73 -28c-11 -14 -18 -32 -18 -77v-15h240v20c0 78 18 125 52 158s85 57 151 57c26 0 50 -2 77 -9z" />
    <glyph glyph-name="f_f" unicode="ff" horiz-adv-x="830" 
d="M795 711l-20 -111c-11 3 -27 5 -39 5c-32 0 -57 -9 -73 -28c-11 -14 -18 -32 -18 -77v-15h150v-110h-150v-375h-130v375h-240v-375h-130v375h-125v110h125v20c0 78 18 125 52 158s85 57 151 57c26 0 50 -2 77 -9l-20 -111c-11 3 -27 5 -39 5c-32 0 -57 -9 -73 -28
c-11 -14 -18 -32 -18 -77v-15h240v20c0 78 18 125 52 158s85 57 151 57c26 0 50 -2 77 -9z" />
    <glyph glyph-name="f_f_i" unicode="ffi" horiz-adv-x="1090" 
d="M795 711l-20 -111c-11 3 -27 5 -39 5c-32 0 -57 -9 -73 -28c-11 -14 -18 -32 -18 -77v-15h370v-485h-130v375h-240v-375h-130v375h-240v-375h-130v375h-125v110h125v20c0 78 18 125 52 158s85 57 151 57c26 0 50 -2 77 -9l-20 -111c-11 3 -27 5 -39 5
c-32 0 -57 -9 -73 -28c-11 -14 -18 -32 -18 -77v-15h240v20c0 78 18 125 52 158s85 57 151 57c26 0 50 -2 77 -9zM865 657c0 47 38 83 85 83s85 -36 85 -83s-38 -83 -85 -83s-85 36 -85 83z" />
    <glyph glyph-name="f_i" unicode="fi" horiz-adv-x="720" 
d="M425 711l-20 -111c-11 3 -27 5 -39 5c-32 0 -57 -9 -73 -28c-11 -14 -18 -32 -18 -77v-15h370v-485h-130v375h-240v-375h-130v375h-125v110h125v20c0 78 18 125 52 158s85 57 151 57c26 0 50 -2 77 -9zM495 657c0 47 38 83 85 83s85 -36 85 -83s-38 -83 -85 -83
s-85 36 -85 83z" />
    <glyph glyph-name="f_l" unicode="fl" horiz-adv-x="720" 
d="M425 711l-20 -111c-11 3 -27 5 -39 5c-32 0 -57 -9 -73 -28c-11 -14 -18 -32 -18 -77v-15h240v225h130v-710h-130v375h-240v-375h-130v375h-125v110h125v20c0 78 18 125 52 158s85 57 151 57c26 0 50 -2 77 -9z" />
    <glyph glyph-name=".notdef" horiz-adv-x="570" 
d="M75 0v700h420v-700h-420zM195 585v-470h180v470h-180z" />
    <glyph glyph-name=".null" horiz-adv-x="0" 
 />
    <glyph glyph-name=".null" horiz-adv-x="0" 
 />
    <glyph glyph-name="uni000D" unicode="&#xd;" horiz-adv-x="270" 
 />
    <glyph glyph-name="space" unicode=" " horiz-adv-x="270" 
 />
    <glyph glyph-name="exclam" unicode="!" horiz-adv-x="375" 
d="M252 485l-20 -255h-90l-20 255v215h130v-215zM100 77c0 49 38 88 87 88s88 -39 88 -88s-39 -87 -88 -87s-87 38 -87 87z" />
    <glyph glyph-name="quotedbl" unicode="&#x22;" horiz-adv-x="480" 
d="M200 700l-20 -255h-90l-20 255h130zM410 700l-20 -255h-90l-20 255h130z" />
    <glyph glyph-name="numbersign" unicode="#" horiz-adv-x="733" 
d="M318 405l-30 -110h126l30 110h-126zM94 515h140l49 185h114l-49 -185h126l49 185h114l-49 -185h110v-110h-139l-31 -110h110l4 -110h-143l-49 -185h-114l49 185h-126l-49 -185h-114l49 185h-110v110h139l30 110h-110v110z" />
    <glyph glyph-name="dollar" unicode="$" horiz-adv-x="535" 
d="M10 95l88 92c40 -44 101 -77 165 -77c60 0 102 37 102 88c0 90 -130 101 -224 156c-55 32 -99 80 -99 159c0 97 70 163 156 187v115h120v-108c54 -6 106 -25 158 -63l-70 -100c-28 26 -75 46 -121 46c-51 0 -108 -22 -108 -76c0 -113 323 -78 323 -314
c0 -106 -81 -184 -182 -204v-111h-120v112c-69 13 -133 47 -188 98z" />
    <glyph glyph-name="percent" unicode="%" horiz-adv-x="965" 
d="M310 525c0 41 -27 75 -70 75s-70 -34 -70 -75s27 -75 70 -75s70 34 70 75zM50 525c0 102 82 185 190 185s190 -83 190 -185s-82 -185 -190 -185s-190 83 -190 185zM795 175c0 41 -27 75 -70 75s-70 -34 -70 -75s27 -75 70 -75s70 34 70 75zM535 175c0 102 82 185 190 185
s190 -83 190 -185s-82 -185 -190 -185s-190 83 -190 185zM335 0h-111l409 700h111z" />
    <glyph glyph-name="ampersand" unicode="&#x26;" horiz-adv-x="660" 
d="M466 422l121 29c7 -24 21 -85 21 -140c0 -68 -14 -130 -43 -179l115 -132h-162l-37 42c-51 -34 -119 -52 -194 -52c-133 0 -262 89 -262 229c0 94 58 160 125 205c-34 45 -55 87 -55 134c0 86 79 152 168 152c97 0 168 -70 168 -164c0 -69 -43 -117 -92 -155l134 -154
c6 22 10 48 10 75c0 43 -8 79 -17 110zM155 219c0 -58 52 -109 138 -109c39 0 76 9 105 27l-167 193c-40 -22 -76 -55 -76 -111zM301 547c0 23 -15 43 -38 43c-22 0 -38 -20 -38 -43s16 -46 34 -66c24 21 42 42 42 66z" />
    <glyph glyph-name="quotesingle" unicode="'" horiz-adv-x="270" 
d="M200 700l-20 -255h-90l-20 255h130z" />
    <glyph glyph-name="parenleft" unicode="(" horiz-adv-x="455" 
d="M260 250c0 -143 43 -283 119 -392l-97 -68c-91 130 -142 290 -142 460s51 330 142 460l97 -68c-76 -109 -119 -249 -119 -392z" />
    <glyph glyph-name="parenright" unicode=")" horiz-adv-x="455" 
d="M195 250c0 143 -43 283 -119 392l97 68c91 -130 142 -290 142 -460s-51 -330 -142 -460l-97 68c76 109 119 249 119 392z" />
    <glyph glyph-name="asterisk" unicode="*" horiz-adv-x="516" 
d="M173 270l-88 64l85 117l-138 45l34 103l137 -44v145h110v-145l137 45l34 -104l-138 -45l85 -117l-88 -64l-85 117z" />
    <glyph glyph-name="plus" unicode="+" horiz-adv-x="550" 
d="M45 335h175v175h110v-175h175v-110h-175v-175h-110v175h-175v110z" />
    <glyph glyph-name="comma" unicode="," horiz-adv-x="375" 
d="M125 155h140l-120 -295h-95z" />
    <glyph glyph-name="hyphen" unicode="-" horiz-adv-x="470" 
d="M70 315h330v-110h-330v110z" />
    <glyph glyph-name="period" unicode="." horiz-adv-x="375" 
d="M110 77c0 49 38 88 87 88s88 -39 88 -88s-39 -87 -88 -87s-87 38 -87 87z" />
    <glyph glyph-name="slash" unicode="/" horiz-adv-x="455" 
d="M125 0h-120l325 700h120z" />
    <glyph glyph-name="zero" unicode="0" horiz-adv-x="600" 
d="M410 350c0 132 -29 240 -110 240s-110 -108 -110 -240s29 -240 110 -240s110 108 110 240zM55 350c0 199 66 360 245 360s245 -161 245 -360s-66 -360 -245 -360s-245 161 -245 360z" />
    <glyph glyph-name="one" unicode="1" horiz-adv-x="425" 
d="M55 472v128l170 100h95v-700h-135v544z" />
    <glyph glyph-name="two" unicode="2" horiz-adv-x="545" 
d="M169 511l-124 37c30 96 118 162 221 162c120 0 224 -90 224 -216c0 -85 -43 -147 -90 -201l-149 -173h244v-120h-455v80l246 279c54 61 69 101 69 137c0 49 -38 94 -91 94c-47 0 -81 -32 -95 -79z" />
    <glyph glyph-name="three" unicode="3" horiz-adv-x="573" 
d="M25 99l97 81c29 -41 77 -70 130 -70c66 0 131 52 131 127c0 73 -60 128 -138 128c-28 0 -58 -7 -84 -20v80l131 155h-234v120h425v-80l-127 -156c96 -37 162 -121 162 -227c0 -148 -116 -247 -261 -247c-87 0 -170 39 -232 109z" />
    <glyph glyph-name="four" unicode="4" horiz-adv-x="615" 
d="M385 700h95v-420h115v-120h-115v-160h-135v160h-325v80zM214 280h131v164z" />
    <glyph glyph-name="five" unicode="5" horiz-adv-x="565" 
d="M40 80l92 86c30 -32 73 -56 120 -56c31 0 61 11 84 32c24 22 39 54 39 90c0 38 -16 72 -43 95c-22 19 -52 28 -85 28c-34 0 -73 -13 -103 -38l-84 12l45 371h370v-120h-260l-11 -110c14 3 35 5 54 5c54 0 114 -13 163 -53c55 -44 89 -115 89 -190
c0 -138 -117 -242 -258 -242c-81 0 -151 29 -212 90z" />
    <glyph glyph-name="six" unicode="6" 
d="M279 700h149l-132 -223h9c133 0 245 -101 245 -241c0 -136 -113 -246 -249 -246c-131 0 -256 93 -256 239c0 69 32 131 69 193zM217 340c-19 -26 -42 -64 -42 -111c0 -66 56 -119 124 -119c69 0 118 55 118 122s-50 125 -125 125c-25 0 -49 -5 -75 -17z" />
    <glyph glyph-name="seven" unicode="7" horiz-adv-x="535" 
d="M45 580v120h460v-80l-301 -620h-143l283 580h-299z" />
    <glyph glyph-name="eight" unicode="8" horiz-adv-x="600" 
d="M300 445c42 0 70 32 70 72s-28 73 -70 73s-70 -33 -70 -73s28 -72 70 -72zM300 110c66 0 115 47 115 107s-49 108 -115 108s-115 -48 -115 -108s49 -107 115 -107zM300 -10c-140 0 -250 100 -250 227c0 82 43 139 101 177c-30 27 -56 66 -56 123c0 107 87 193 205 193
s205 -86 205 -193c0 -57 -26 -96 -56 -123c58 -38 101 -95 101 -177c0 -127 -110 -227 -250 -227z" />
    <glyph glyph-name="nine" unicode="9" 
d="M311 0h-149l132 223h-9c-133 0 -245 101 -245 241c0 136 113 246 249 246c131 0 256 -93 256 -239c0 -69 -32 -131 -69 -193zM373 360c19 26 42 64 42 111c0 66 -56 119 -124 119c-69 0 -118 -55 -118 -122s50 -125 125 -125c25 0 49 5 75 17z" />
    <glyph glyph-name="colon" unicode=":" horiz-adv-x="375" 
d="M110 409c0 49 38 86 87 86s88 -37 88 -86s-39 -85 -88 -85s-87 36 -87 85zM110 75c0 49 38 86 87 86s88 -37 88 -86s-39 -85 -88 -85s-87 36 -87 85z" />
    <glyph glyph-name="semicolon" unicode=";" horiz-adv-x="375" 
d="M125 155h140l-120 -295h-95zM105 409c0 49 38 86 87 86s88 -37 88 -86s-39 -85 -88 -85s-87 36 -87 85z" />
    <glyph glyph-name="less" unicode="&#x3c;" horiz-adv-x="550" 
d="M239 280l266 -116v-119l-460 200v70l460 200v-119z" />
    <glyph glyph-name="equal" unicode="=" horiz-adv-x="550" 
d="M45 230h460v-110h-460v110zM45 440h460v-110h-460v110z" />
    <glyph glyph-name="greater" unicode="&#x3e;" horiz-adv-x="550" 
d="M45 164l266 116l-266 116v119l460 -200v-70l-460 -200v119z" />
    <glyph glyph-name="question" unicode="?" horiz-adv-x="500" 
d="M161 75c0 49 38 86 87 86s88 -37 88 -86s-39 -85 -88 -85s-87 36 -87 85zM186 529l-126 33c18 79 89 148 198 148c113 0 202 -77 202 -180c0 -147 -160 -176 -160 -236c0 -17 8 -27 17 -36l-101 -70c-11 13 -46 53 -46 109c0 129 160 152 160 231c0 37 -29 62 -72 62
c-44 0 -69 -32 -72 -61z" />
    <glyph glyph-name="at" unicode="@" horiz-adv-x="1000" 
d="M382 250c0 -63 47 -115 115 -115c39 0 74 17 91 38c-1 13 -2 27 -2 44v112c-18 20 -52 36 -89 36c-68 0 -115 -52 -115 -115zM745 35c-46 0 -89 21 -118 53c-24 -22 -69 -53 -137 -53c-93 0 -218 73 -218 215c0 137 117 215 209 215c36 0 74 -8 109 -31v21h106v-241
c0 -31 3 -44 10 -56c8 -13 21 -23 42 -23c60 0 72 84 72 140c0 179 -150 305 -316 305c-179 0 -324 -146 -324 -330c0 -182 143 -330 320 -330c74 0 144 22 198 65l62 -91c-68 -51 -155 -84 -253 -84c-245 0 -437 196 -437 440c0 242 189 440 433 440
c226 0 427 -175 427 -415c0 -129 -57 -240 -185 -240z" />
    <glyph glyph-name="A" unicode="A" horiz-adv-x="695" 
d="M141 0h-141l300 700h95l300 -700h-141l-66 155h-281zM347 482l-89 -207h178z" />
    <glyph glyph-name="B" unicode="B" horiz-adv-x="625" 
d="M80 700h238c79 0 123 -19 157 -49c39 -34 65 -84 65 -141c0 -46 -22 -93 -45 -117c62 -31 105 -101 105 -179c0 -59 -25 -113 -64 -151c-39 -39 -93 -63 -183 -63h-273v700zM215 580v-150h95c42 0 61 10 75 25c12 13 20 31 20 50s-8 37 -20 50c-14 15 -33 25 -75 25h-95z
M215 120h135c47 0 73 12 90 31c16 17 25 39 25 64s-9 47 -25 64c-17 19 -43 31 -90 31h-135v-190z" />
    <glyph glyph-name="C" unicode="C" horiz-adv-x="715" 
d="M398 590c-133 0 -233 -107 -233 -240c0 -136 104 -240 239 -240c91 0 157 44 198 97l93 -83c-62 -79 -166 -134 -294 -134c-218 0 -371 159 -371 360s151 360 369 360c104 0 193 -39 256 -100l-87 -92c-42 42 -101 72 -170 72z" />
    <glyph glyph-name="D" unicode="D" horiz-adv-x="710" 
d="M545 350c0 58 -19 112 -51 152c-39 49 -96 78 -179 78h-100v-460h100c83 0 140 29 179 78c32 40 51 94 51 152zM80 700h220c111 0 184 -24 241 -66c86 -64 139 -168 139 -284s-53 -220 -139 -284c-57 -42 -130 -66 -241 -66h-220v700z" />
    <glyph glyph-name="E" unicode="E" horiz-adv-x="550" 
d="M500 580h-285v-145h215v-120h-215v-195h295v-120h-430v700h420v-120z" />
    <glyph glyph-name="F" unicode="F" horiz-adv-x="520" 
d="M500 580h-285v-145h215v-120h-215v-315h-135v700h420v-120z" />
    <glyph glyph-name="G" unicode="G" horiz-adv-x="755" 
d="M398 590c-133 0 -233 -107 -233 -240c0 -136 104 -240 239 -240c64 0 116 22 156 54v151h-180v120h315v-311c-62 -79 -166 -134 -294 -134c-218 0 -371 159 -371 360s151 360 369 360c104 0 193 -39 256 -100l-87 -92c-42 42 -101 72 -170 72z" />
    <glyph glyph-name="H" unicode="H" horiz-adv-x="780" 
d="M565 0v315h-350v-315h-135v700h135v-265h350v265h135v-700h-135z" />
    <glyph glyph-name="I" unicode="I" horiz-adv-x="295" 
d="M80 0v700h135v-700h-135z" />
    <glyph glyph-name="J" unicode="J" horiz-adv-x="500" 
d="M425 700v-480c0 -56 -6 -94 -22 -124c-36 -67 -110 -106 -191 -106c-91 0 -165 48 -197 123l116 58c11 -28 36 -61 82 -61c25 0 47 10 61 28c10 13 16 30 16 67v495h135z" />
    <glyph glyph-name="K" unicode="K" horiz-adv-x="695" 
d="M522 0l-307 344v-344h-135v700h135v-280l265 280h178l-308 -320l345 -380h-173z" />
    <glyph glyph-name="L" unicode="L" horiz-adv-x="535" 
d="M80 0v700h135v-580h295v-120h-430z" />
    <glyph glyph-name="M" unicode="M" horiz-adv-x="860" 
d="M175 700l255 -419l255 419h95v-700h-135v390l-168 -275h-94l-168 275v-390h-135v700h95z" />
    <glyph glyph-name="N" unicode="N" horiz-adv-x="780" 
d="M80 0v700h95l390 -456v456h135v-700h-95l-390 456v-456h-135z" />
    <glyph glyph-name="O" unicode="O" horiz-adv-x="790" 
d="M165 350c0 -132 98 -240 230 -240s230 108 230 240s-98 240 -230 240s-230 -108 -230 -240zM30 350c0 199 149 360 365 360s365 -161 365 -360s-149 -360 -365 -360s-365 161 -365 360z" />
    <glyph glyph-name="P" unicode="P" horiz-adv-x="600" 
d="M343 285h-128v-285h-135v700h263c90 0 143 -22 182 -63c35 -36 55 -90 55 -145s-20 -109 -55 -145c-38 -40 -92 -62 -182 -62zM215 405h122c46 0 69 11 85 28c15 16 23 36 23 59s-8 44 -23 60c-16 17 -39 28 -85 28h-122v-175z" />
    <glyph glyph-name="Q" unicode="Q" horiz-adv-x="800" 
d="M30 350c0 199 149 360 365 360s365 -161 365 -360c0 -84 -27 -162 -74 -223l114 -127h-153l-44 50c-58 -38 -128 -60 -208 -60c-216 0 -365 161 -365 360zM165 350c0 -132 98 -240 230 -240c46 0 88 13 123 36l-152 172l85 74l144 -162c19 35 30 76 30 120
c0 132 -98 240 -230 240s-230 -108 -230 -240z" />
    <glyph glyph-name="R" unicode="R" horiz-adv-x="670" 
d="M264 310h-49v-310h-135v700h255c72 0 118 -20 153 -52c38 -36 62 -87 62 -143s-24 -107 -62 -143c-19 -18 -42 -32 -70 -41l262 -321h-167zM215 430h112c39 0 56 8 68 21s20 33 20 53c0 21 -8 41 -20 54s-29 22 -68 22h-112v-150z" />
    <glyph glyph-name="S" unicode="S" horiz-adv-x="535" 
d="M10 95l88 92c40 -44 101 -77 165 -77c60 0 102 37 102 88c0 90 -130 101 -224 156c-55 32 -99 80 -99 159c0 125 115 197 231 197c71 0 137 -17 203 -66l-70 -100c-28 26 -75 46 -121 46c-51 0 -108 -22 -108 -76c0 -113 323 -78 323 -314c0 -124 -111 -210 -237 -210
c-94 0 -181 39 -253 105z" />
    <glyph glyph-name="T" unicode="T" horiz-adv-x="555" 
d="M25 700h505v-120h-185v-580h-135v580h-185v120z" />
    <glyph glyph-name="U" unicode="U" horiz-adv-x="750" 
d="M375 -10c-79 0 -156 24 -210 72c-58 52 -90 126 -90 233v405h135v-415c0 -64 17 -103 46 -130c30 -29 72 -45 119 -45s89 16 119 45c29 27 46 66 46 130v415h135v-405c0 -107 -32 -181 -90 -233c-54 -48 -131 -72 -210 -72z" />
    <glyph glyph-name="V" unicode="V" horiz-adv-x="681" 
d="M293 0l-283 700h139l191 -478l192 478h139l-283 -700h-95z" />
    <glyph glyph-name="W" unicode="W" horiz-adv-x="985" 
d="M242 0l-232 700h136l145 -437l154 437h95l154 -437l145 437h136l-232 -700h-95l-156 443l-155 -443h-95z" />
    <glyph glyph-name="X" unicode="X" horiz-adv-x="680" 
d="M635 700l-213 -327l243 -373h-155l-170 266l-170 -266h-155l242 373l-212 327h155l140 -221l140 221h155z" />
    <glyph glyph-name="Y" unicode="Y" horiz-adv-x="625" 
d="M620 700l-240 -383v-317h-135v317l-240 383h154l154 -246l153 246h154z" />
    <glyph glyph-name="Z" unicode="Z" horiz-adv-x="615" 
d="M40 0v80l340 500h-310v120h490v-80l-341 -500h361v-120h-540z" />
    <glyph glyph-name="bracketleft" unicode="[" horiz-adv-x="455" 
d="M140 -200v900h275v-115h-155v-670h155v-115h-275z" />
    <glyph glyph-name="backslash" unicode="\" horiz-adv-x="455" 
d="M5 700h120l325 -700h-120z" />
    <glyph glyph-name="bracketright" unicode="]" horiz-adv-x="455" 
d="M315 700v-900h-275v115h155v670h-155v115h275z" />
    <glyph glyph-name="asciicircum" unicode="^" horiz-adv-x="520" 
d="M30 350l185 350h90l185 -350h-124l-106 201l-106 -201h-124z" />
    <glyph glyph-name="underscore" unicode="_" horiz-adv-x="520" 
d="M15 0h490v-110h-490v110z" />
    <glyph glyph-name="grave" unicode="`" horiz-adv-x="350" 
d="M70 720h140l70 -160h-90z" />
    <glyph glyph-name="a" unicode="a" horiz-adv-x="615" 
d="M410 170v145c-27 36 -70 60 -120 60c-76 0 -125 -63 -125 -133c0 -76 55 -132 128 -132c49 0 92 24 117 60zM540 485v-485h-125v39c-40 -34 -86 -49 -135 -49c-72 0 -140 32 -183 82c-38 44 -62 104 -62 170c0 143 106 253 238 253c55 0 104 -18 142 -49v39h125z" />
    <glyph glyph-name="b" unicode="b" horiz-adv-x="615" 
d="M205 315v-145c25 -36 68 -60 117 -60c73 0 128 56 128 132c0 70 -49 133 -125 133c-50 0 -93 -24 -120 -60zM200 0h-125v710h130v-260c38 30 84 45 137 45c132 0 238 -110 238 -253c0 -66 -24 -126 -62 -170c-43 -50 -111 -82 -183 -82c-49 0 -95 15 -135 49v-39z" />
    <glyph glyph-name="c" unicode="c" horiz-adv-x="540" 
d="M415 174l100 -75c-57 -76 -129 -109 -220 -109c-150 0 -260 112 -260 252c0 141 113 253 261 253c84 0 159 -39 204 -97l-92 -81c-26 34 -65 58 -112 58c-75 0 -131 -59 -131 -133c0 -76 55 -132 134 -132c53 0 95 32 116 64z" />
    <glyph glyph-name="d" unicode="d" horiz-adv-x="615" 
d="M410 170v145c-27 36 -70 60 -120 60c-76 0 -125 -63 -125 -133c0 -76 55 -132 128 -132c49 0 92 24 117 60zM540 0h-125v39c-40 -34 -86 -49 -135 -49c-72 0 -140 32 -183 82c-38 44 -62 104 -62 170c0 143 106 253 238 253c53 0 99 -15 137 -45v260h130v-710z" />
    <glyph glyph-name="e" unicode="e" horiz-adv-x="535" 
d="M414 151l74 -74c-47 -56 -124 -87 -199 -87c-145 0 -254 100 -254 252c0 135 92 253 236 253c134 0 229 -113 229 -248c0 -13 -1 -26 -3 -37h-336c7 -68 62 -115 131 -115c55 0 99 31 122 56zM167 305h200c-4 43 -43 85 -96 85c-54 0 -98 -41 -104 -85z" />
    <glyph glyph-name="f" unicode="f" horiz-adv-x="460" 
d="M425 711l-20 -111c-11 3 -27 5 -39 5c-32 0 -57 -9 -73 -28c-11 -14 -18 -32 -18 -77v-15h150v-110h-150v-375h-130v375h-125v110h125v20c0 78 18 125 52 158s85 57 151 57c26 0 50 -2 77 -9z" />
    <glyph glyph-name="g" unicode="g" horiz-adv-x="615" 
d="M540 485v-458c0 -87 -15 -139 -44 -180c-44 -61 -122 -97 -215 -97c-95 0 -185 44 -233 100l82 85c26 -28 71 -70 151 -70c42 0 77 13 99 39c20 22 30 52 30 114v16c-39 -30 -81 -44 -130 -44c-72 0 -141 32 -184 82c-38 44 -61 104 -61 170c0 143 106 253 238 253
c55 0 104 -18 142 -49v39h125zM410 170v145c-27 36 -70 60 -120 60c-76 0 -125 -63 -125 -133c0 -76 55 -132 128 -132c49 0 92 24 117 60z" />
    <glyph glyph-name="h" unicode="h" horiz-adv-x="620" 
d="M205 315v-315h-130v710h130v-260c36 28 82 45 132 45c67 0 128 -30 168 -78c32 -38 50 -87 50 -170v-247h-130v257c0 48 -11 73 -29 91c-17 17 -43 27 -73 27c-55 0 -100 -35 -118 -60z" />
    <glyph glyph-name="i" unicode="i" horiz-adv-x="280" 
d="M205 485v-485h-130v485h130zM55 657c0 47 38 83 85 83s85 -36 85 -83s-38 -83 -85 -83s-85 36 -85 83z" />
    <glyph glyph-name="j" unicode="j" horiz-adv-x="320" 
d="M-20 -243l20 118c9 -3 27 -5 34 -5c27 0 48 7 62 22c13 14 19 35 19 83v510h130v-510c0 -73 -10 -117 -35 -153c-30 -42 -81 -72 -165 -72c-26 0 -51 4 -65 7zM95 657c0 47 38 83 85 83s85 -36 85 -83s-38 -83 -85 -83s-85 36 -85 83z" />
    <glyph glyph-name="k" unicode="k" horiz-adv-x="595" 
d="M555 485l-237 -218l267 -267h-175l-205 210v-210h-130v710h130v-382l167 157h183z" />
    <glyph glyph-name="l" unicode="l" horiz-adv-x="280" 
d="M205 710v-710h-130v710h130z" />
    <glyph glyph-name="m" unicode="m" horiz-adv-x="950" 
d="M205 0h-130v485h125v-39c38 34 84 49 131 49c66 0 125 -30 163 -76c39 41 100 76 172 76c67 0 131 -30 170 -78c31 -38 49 -88 49 -160v-257h-130v262c0 44 -9 66 -24 83c-20 22 -48 30 -73 30c-56 0 -100 -39 -117 -64c2 -16 4 -34 4 -54v-257h-130v262
c0 44 -9 66 -24 83c-20 22 -48 30 -73 30c-55 0 -95 -37 -113 -60v-315z" />
    <glyph glyph-name="n" unicode="n" horiz-adv-x="620" 
d="M205 0h-130v485h125v-39c37 30 83 49 137 49c67 0 128 -30 168 -78c32 -38 50 -87 50 -170v-247h-130v257c0 48 -11 73 -29 91c-17 17 -43 27 -73 27c-55 0 -100 -35 -118 -60v-315z" />
    <glyph glyph-name="o" unicode="o" horiz-adv-x="586" 
d="M35 242c0 140 111 253 258 253s258 -113 258 -253s-111 -252 -258 -252s-258 112 -258 252zM165 242c0 -73 52 -132 128 -132s128 59 128 132s-52 133 -128 133s-128 -60 -128 -133z" />
    <glyph glyph-name="p" unicode="p" horiz-adv-x="615" 
d="M75 -240v725h125v-39c38 31 87 49 142 49c132 0 238 -110 238 -253c0 -66 -23 -126 -61 -170c-43 -50 -112 -82 -184 -82c-49 0 -91 14 -130 44v-274h-130zM205 315v-145c25 -36 68 -60 117 -60c73 0 128 56 128 132c0 70 -49 133 -125 133c-50 0 -93 -24 -120 -60z" />
    <glyph glyph-name="q" unicode="q" horiz-adv-x="615" 
d="M540 485v-725h-130v274c-39 -30 -81 -44 -130 -44c-72 0 -141 32 -184 82c-38 44 -61 104 -61 170c0 143 106 253 238 253c55 0 104 -18 142 -49v39h125zM410 170v145c-27 36 -70 60 -120 60c-76 0 -125 -63 -125 -133c0 -76 55 -132 128 -132c49 0 92 24 117 60z" />
    <glyph glyph-name="r" unicode="r" horiz-adv-x="410" 
d="M385 491l-15 -121c-9 3 -28 5 -47 5c-57 0 -102 -41 -118 -70v-305h-130v485h125v-49c29 36 82 59 141 59c19 0 30 -2 44 -4z" />
    <glyph glyph-name="s" unicode="s" horiz-adv-x="460" 
d="M27 55l63 93c33 -30 84 -48 133 -48c35 0 62 17 62 41c0 73 -235 47 -235 203c0 93 90 151 186 151c63 0 132 -24 164 -49l-61 -94c-25 18 -58 33 -93 33c-36 0 -66 -14 -66 -39c0 -63 235 -38 235 -206c0 -93 -91 -150 -193 -150c-67 0 -138 23 -195 65z" />
    <glyph glyph-name="t" unicode="t" horiz-adv-x="495" 
d="M420 110l20 -110c-17 -6 -56 -10 -81 -10c-78 0 -135 26 -168 70c-25 33 -36 76 -36 145v170h-135v110h135v135h130v-135h160v-110h-160v-185c0 -30 5 -48 16 -61c13 -15 34 -24 66 -24c19 0 44 3 53 5z" />
    <glyph glyph-name="u" unicode="u" horiz-adv-x="610" 
d="M405 485h130v-485h-125v39c-38 -34 -84 -49 -131 -49c-67 0 -127 31 -165 78c-31 38 -49 88 -49 160v257h130v-262c0 -44 9 -66 24 -83c20 -22 48 -30 73 -30c55 0 95 37 113 60v315z" />
    <glyph glyph-name="v" unicode="v" horiz-adv-x="556" 
d="M145 485l133 -296l133 296h135l-223 -485h-90l-223 485h135z" />
    <glyph glyph-name="w" unicode="w" horiz-adv-x="852" 
d="M426 282l-122 -282h-90l-204 485h131l118 -283l122 283h90l121 -283l119 283h131l-204 -485h-90z" />
    <glyph glyph-name="x" unicode="x" horiz-adv-x="546" 
d="M177 485l96 -138l96 138h149l-163 -226l186 -259h-154l-114 164l-114 -164h-154l186 259l-163 226h149z" />
    <glyph glyph-name="y" unicode="y" horiz-adv-x="573" 
d="M229 -240h-136l134 289l-217 436h143l142 -291l131 291h137z" />
    <glyph glyph-name="z" unicode="z" horiz-adv-x="530" 
d="M460 485v-80l-235 -295h255v-110h-430v80l232 295h-212v110h390z" />
    <glyph glyph-name="braceleft" unicode="{" horiz-adv-x="455" 
d="M187 250c36 -13 73 -32 73 -117c0 -53 -10 -101 -10 -150c0 -53 33 -68 76 -68h39v-115h-30c-129 0 -205 60 -205 179c0 58 10 110 10 163c0 50 -35 68 -90 68v80c55 0 90 18 90 68c0 53 -10 105 -10 163c0 119 76 179 205 179h30v-115h-39c-43 0 -76 -15 -76 -68
c0 -49 10 -97 10 -150c0 -85 -37 -104 -73 -117z" />
    <glyph glyph-name="bar" unicode="|" horiz-adv-x="240" 
d="M180 700v-900h-120v900h120z" />
    <glyph glyph-name="braceright" unicode="}" horiz-adv-x="455" 
d="M268 250c-36 13 -73 32 -73 117c0 53 10 101 10 150c0 53 -33 68 -76 68h-39v115h30c129 0 205 -60 205 -179c0 -58 -10 -110 -10 -163c0 -50 35 -68 90 -68v-80c-55 0 -90 -18 -90 -68c0 -53 10 -105 10 -163c0 -119 -76 -179 -205 -179h-30v115h39c43 0 76 15 76 68
c0 49 -10 97 -10 150c0 85 37 104 73 117z" />
    <glyph glyph-name="asciitilde" unicode="~" horiz-adv-x="570" 
d="M127 188l-107 27c17 83 71 162 168 162c96 0 141 -84 190 -84c34 0 57 35 65 79l107 -27c-17 -83 -71 -162 -168 -162c-96 0 -141 84 -190 84c-34 0 -57 -35 -65 -79z" />
    <glyph glyph-name="uni00A0" unicode="&#xa0;" horiz-adv-x="270" 
 />
    <glyph glyph-name="exclamdown" unicode="&#xa1;" horiz-adv-x="375" 
d="M232 230l20 -255v-215h-130v215l20 255h90zM100 410c0 49 38 85 87 85s88 -36 88 -85s-39 -86 -88 -86s-87 37 -87 86z" />
    <glyph glyph-name="cent" unicode="&#xa2;" horiz-adv-x="540" 
d="M165 242c0 -76 55 -132 134 -132c53 0 95 32 116 64l100 -75c-46 -61 -101 -94 -168 -105v-109h-120v114c-114 27 -192 125 -192 243s79 215 192 244v114h120v-110c63 -12 117 -46 153 -92l-92 -81c-26 34 -65 58 -112 58c-75 0 -131 -59 -131 -133z" />
    <glyph glyph-name="sterling" unicode="&#xa3;" horiz-adv-x="530" 
d="M244 405h135v-110h-97c2 -14 4 -29 4 -47c0 -57 -21 -100 -40 -128h274v-120h-495v80c82 27 131 89 131 167c0 15 -1 30 -5 48h-111v110h66c-12 29 -20 62 -20 103c0 112 97 202 212 202c101 0 168 -56 198 -136l-113 -44c-12 32 -41 60 -81 60c-48 0 -86 -35 -86 -82
c0 -35 13 -68 28 -103z" />
    <glyph glyph-name="currency" unicode="&#xa4;" horiz-adv-x="610" 
d="M94 351c0 36 9 70 26 100l-80 80l85 85l80 -80c30 17 64 26 100 26c37 0 71 -9 101 -26l79 80l85 -85l-79 -80c16 -30 25 -64 25 -100c0 -37 -9 -71 -25 -101l79 -79l-85 -85l-79 79c-30 -16 -64 -25 -101 -25c-36 0 -70 9 -100 25l-80 -79l-85 85l80 79
c-17 30 -26 64 -26 101zM224 351c0 -45 36 -81 81 -81s81 36 81 81s-36 81 -81 81s-81 -36 -81 -81z" />
    <glyph glyph-name="yen" unicode="&#xa5;" horiz-adv-x="625" 
d="M52 215v110h188l-32 50h-156v110h87l-134 215h154l154 -246l153 246h154l-135 -215h88v-110h-157l-31 -50h188v-110h-193v-215h-135v215h-193z" />
    <glyph glyph-name="brokenbar" unicode="&#xa6;" horiz-adv-x="280" 
d="M200 190v-390h-120v390h120zM200 700v-390h-120v390h120z" />
    <glyph glyph-name="section" unicode="&#xa7;" horiz-adv-x="573" 
d="M538 215c0 -61 -28 -113 -70 -150c18 -26 30 -58 30 -98c0 -125 -115 -197 -231 -197c-71 0 -137 17 -203 66l70 100c28 -26 75 -46 121 -46c51 0 108 22 108 76c0 113 -328 73 -328 299c0 61 27 112 70 149c-19 26 -30 58 -30 99c0 125 115 197 231 197
c71 0 137 -17 203 -66l-70 -100c-28 26 -75 46 -121 46c-51 0 -108 -22 -108 -76c0 -113 328 -73 328 -299zM403 213c0 77 -107 85 -196 124c-24 -16 -37 -41 -37 -70c0 -78 106 -85 196 -125c23 16 37 41 37 71z" />
    <glyph glyph-name="dieresis" unicode="&#xa8;" horiz-adv-x="510" 
d="M70 642c0 44 36 78 80 78s80 -34 80 -78s-36 -78 -80 -78s-80 34 -80 78zM280 642c0 44 36 78 80 78s80 -34 80 -78s-36 -78 -80 -78s-80 34 -80 78z" />
    <glyph glyph-name="copyright" unicode="&#xa9;" horiz-adv-x="840" 
d="M70 350c0 193 157 350 350 350s350 -157 350 -350s-157 -350 -350 -350s-350 157 -350 350zM140 350c0 -155 125 -280 280 -280s280 125 280 280s-125 280 -280 280s-280 -125 -280 -280zM519 266l51 -61c-28 -29 -81 -55 -136 -55c-117 0 -208 86 -208 200
c0 116 89 201 203 201c51 0 95 -16 126 -46l-49 -59c-21 15 -47 25 -76 25c-65 0 -117 -55 -117 -121c0 -67 53 -120 120 -120c34 0 64 14 86 36z" />
    <glyph glyph-name="ordfeminine" unicode="&#xaa;" horiz-adv-x="416" 
d="M371 704v-308h-89v22c-23 -19 -52 -28 -85 -28c-44 0 -86 21 -113 52c-24 28 -39 66 -39 108c0 90 67 160 151 160c34 0 62 -9 86 -28v22h89zM281 506v87c-16 23 -39 37 -70 37c-46 0 -76 -38 -76 -80c0 -45 33 -80 77 -80c31 0 54 14 69 36z" />
    <glyph glyph-name="guillemotleft" unicode="&#xab;" horiz-adv-x="659" 
d="M196 437h143l-156 -190l156 -190h-143l-126 155v70zM476 437h143l-156 -190l156 -190h-143l-126 155v70z" />
    <glyph glyph-name="logicalnot" unicode="&#xac;" horiz-adv-x="550" 
d="M505 440v-320h-110v210h-350v110h460z" />
    <glyph glyph-name="uni00AD" unicode="&#xad;" horiz-adv-x="470" 
d="M70 315h330v-110h-330v110z" />
    <glyph glyph-name="registered" unicode="&#xae;" horiz-adv-x="840" 
d="M70 350c0 193 157 350 350 350s350 -157 350 -350s-157 -350 -350 -350s-350 157 -350 350zM395 321h-23v-162h-87v383h136c48 0 75 -11 96 -30c24 -21 38 -51 38 -86c0 -39 -19 -70 -49 -88c-7 -5 -15 -8 -24 -11l115 -168h-95zM372 392h52c20 0 30 4 37 13
c4 5 7 13 7 21c0 9 -3 17 -7 22c-7 8 -17 14 -37 14h-52v-70zM140 350c0 -155 125 -280 280 -280s280 125 280 280s-125 280 -280 280s-280 -125 -280 -280z" />
    <glyph glyph-name="macron" unicode="&#xaf;" horiz-adv-x="460" 
d="M70 690h320v-100h-320v100z" />
    <glyph glyph-name="degree" unicode="&#xb0;" horiz-adv-x="430" 
d="M45 540c0 94 76 170 170 170s170 -76 170 -170s-76 -170 -170 -170s-170 76 -170 170zM145 540c0 -39 31 -70 70 -70s70 31 70 70s-31 70 -70 70s-70 -31 -70 -70z" />
    <glyph glyph-name="plusminus" unicode="&#xb1;" horiz-adv-x="550" 
d="M220 294h-175v110h175v126h110v-126h175v-110h-175v-126h-110v126zM45 140h460v-110h-460v110z" />
    <glyph glyph-name="twosuperior" unicode="&#xb2;" horiz-adv-x="317" 
d="M125 594l-90 26c15 55 66 90 125 90c65 0 120 -46 120 -113c0 -36 -17 -68 -42 -99l-59 -73h108v-85h-257v50l131 159c15 19 21 31 21 43c0 15 -9 28 -26 28c-15 0 -26 -11 -31 -26z" />
    <glyph glyph-name="threesuperior" unicode="&#xb3;" horiz-adv-x="296" 
d="M78 496v50l58 74h-114v80h230v-50l-60 -85c46 -19 74 -61 74 -108c0 -76 -68 -127 -144 -127c-46 0 -89 16 -122 49l59 60c8 -10 27 -27 60 -27c25 0 49 17 49 45c0 27 -23 47 -51 47c-15 0 -29 -4 -39 -8z" />
    <glyph glyph-name="acute" unicode="&#xb4;" horiz-adv-x="350" 
d="M140 720h140l-120 -160h-90z" />
    <glyph glyph-name="mu" unicode="&#xb5;" horiz-adv-x="620" 
d="M415 485h130v-485h-125v39c-38 -34 -84 -49 -131 -49c-30 0 -61 8 -84 22v-252h-130v725h130v-262c0 -44 9 -66 24 -83c20 -22 48 -30 73 -30c55 0 95 37 113 60v315z" />
    <glyph glyph-name="paragraph" unicode="&#xb6;" horiz-adv-x="725" 
d="M240 380v210c-54 -5 -95 -50 -95 -105s41 -100 95 -105zM273 700h407v-110h-100v-790h-120v790h-100v-790h-120v470c-119 0 -215 96 -215 215c0 79 45 149 109 186c32 19 69 29 139 29z" />
    <glyph glyph-name="periodcentered" unicode="&#xb7;" horiz-adv-x="375" 
d="M100 242c0 49 38 88 87 88s88 -39 88 -88s-39 -87 -88 -87s-87 38 -87 87z" />
    <glyph glyph-name="cedilla" unicode="&#xb8;" horiz-adv-x="310" 
d="M80 -150l65 160h95l-30 -160h-130z" />
    <glyph glyph-name="onesuperior" unicode="&#xb9;" horiz-adv-x="260" 
d="M30 541v97l120 62h60v-360h-100v242z" />
    <glyph glyph-name="ordmasculine" unicode="&#xba;" horiz-adv-x="416" 
d="M281 550c0 45 -27 80 -73 80s-73 -35 -73 -80s27 -80 73 -80s73 35 73 80zM45 550c0 88 64 160 163 160s163 -72 163 -160s-64 -160 -163 -160s-163 72 -163 160z" />
    <glyph glyph-name="guillemotright" unicode="&#xbb;" horiz-adv-x="659" 
d="M320 437h143l126 -155v-70l-126 -155h-143l156 190zM40 437h143l126 -155v-70l-126 -155h-143l156 190z" />
    <glyph glyph-name="onequarter" unicode="&#xbc;" horiz-adv-x="725" 
d="M211 0h-111l409 700h111zM65 541v97l120 62h60v-360h-100v242zM599 360v-215h66v-75h-66v-70h-85v70h-159v50l184 240h60zM469 145h45v58z" />
    <glyph glyph-name="onehalf" unicode="&#xbd;" horiz-adv-x="727" 
d="M211 0h-111l409 700h111zM65 541v97l120 62h60v-360h-100v242zM535 254l-90 26c15 55 66 90 125 90c65 0 120 -46 120 -113c0 -36 -17 -68 -42 -99l-59 -73h108v-85h-257v50l131 159c15 19 21 31 21 43c0 15 -9 28 -26 28c-15 0 -26 -11 -31 -26z" />
    <glyph glyph-name="threequarters" unicode="&#xbe;" horiz-adv-x="738" 
d="M78 496v50l58 74h-114v80h230v-50l-60 -85c46 -19 74 -61 74 -108c0 -76 -68 -127 -144 -127c-46 0 -89 16 -122 49l59 60c8 -10 27 -27 60 -27c25 0 49 17 49 45c0 27 -23 47 -51 47c-15 0 -29 -4 -39 -8zM197 0h-111l409 700h111zM585 360v-215h66v-75h-66v-70h-85v70
h-159v50l184 240h60zM455 145h45v58z" />
    <glyph glyph-name="questiondown" unicode="&#xbf;" horiz-adv-x="500" 
d="M339 410c0 -49 -38 -86 -87 -86s-88 37 -88 86s39 85 88 85s87 -36 87 -85zM314 -69l126 -33c-18 -79 -89 -148 -198 -148c-113 0 -202 77 -202 180c0 147 160 176 160 236c0 17 -8 27 -17 36l101 70c11 -13 46 -53 46 -109c0 -129 -160 -152 -160 -231
c0 -37 29 -62 72 -62c44 0 69 32 72 61z" />
    <glyph glyph-name="Agrave" unicode="&#xc0;" horiz-adv-x="695" 
d="M182 920h140l70 -160h-90zM141 0h-141l300 700h95l300 -700h-141l-66 155h-281zM347 482l-89 -207h178z" />
    <glyph glyph-name="Aacute" unicode="&#xc1;" horiz-adv-x="695" 
d="M372 920h140l-120 -160h-90zM141 0h-141l300 700h95l300 -700h-141l-66 155h-281zM347 482l-89 -207h178z" />
    <glyph glyph-name="Acircumflex" unicode="&#xc2;" horiz-adv-x="695" 
d="M277 920h140l100 -160h-90l-80 90l-80 -90h-90zM141 0h-141l300 700h95l300 -700h-141l-66 155h-281zM347 482l-89 -207h178z" />
    <glyph glyph-name="Atilde" unicode="&#xc3;" horiz-adv-x="695" 
d="M141 0h-141l300 700h95l300 -700h-141l-66 155h-281zM347 482l-89 -207h178zM457 920l80 -16c0 -72 -39 -134 -111 -134c-60 0 -106 50 -149 50c-24 0 -37 -22 -40 -50l-80 16c0 72 39 134 111 134c60 0 106 -50 149 -50c24 0 37 22 40 50z" />
    <glyph glyph-name="Adieresis" unicode="&#xc4;" horiz-adv-x="695" 
d="M163 842c0 44 36 78 80 78s80 -34 80 -78s-36 -78 -80 -78s-80 34 -80 78zM373 842c0 44 36 78 80 78s80 -34 80 -78s-36 -78 -80 -78s-80 34 -80 78zM141 0h-141l300 700h95l300 -700h-141l-66 155h-281zM347 482l-89 -207h178z" />
    <glyph glyph-name="Aring" unicode="&#xc5;" horiz-adv-x="695" 
d="M237 850c0 61 49 110 110 110s110 -49 110 -110s-49 -110 -110 -110s-110 49 -110 110zM317 850c0 -17 13 -30 30 -30s30 13 30 30s-13 30 -30 30s-30 -13 -30 -30zM141 0h-141l300 700h95l300 -700h-141l-66 155h-281zM347 482l-89 -207h178z" />
    <glyph glyph-name="AE" unicode="&#xc6;" horiz-adv-x="960" 
d="M910 580h-285v-145h225v-120h-225v-195h295v-120h-430v155h-256l-93 -155h-151l421 700h499v-120zM306 275h184v306z" />
    <glyph glyph-name="Ccedilla" unicode="&#xc7;" horiz-adv-x="715" 
d="M278 -150l59 145c-184 27 -307 174 -307 355c0 201 151 360 369 360c104 0 193 -39 256 -100l-87 -92c-42 42 -101 72 -170 72c-133 0 -233 -107 -233 -240c0 -136 104 -240 239 -240c91 0 157 44 198 97l93 -83c-57 -72 -148 -124 -261 -132l-26 -142h-130z" />
    <glyph glyph-name="Egrave" unicode="&#xc8;" horiz-adv-x="550" 
d="M500 580h-285v-145h215v-120h-215v-195h295v-120h-430v700h420v-120zM137 920h140l70 -160h-90z" />
    <glyph glyph-name="Eacute" unicode="&#xc9;" horiz-adv-x="550" 
d="M500 580h-285v-145h215v-120h-215v-195h295v-120h-430v700h420v-120zM310 920h140l-120 -160h-90z" />
    <glyph glyph-name="Ecircumflex" unicode="&#xca;" horiz-adv-x="550" 
d="M500 580h-285v-145h215v-120h-215v-195h295v-120h-430v700h420v-120zM225 920h140l100 -160h-90l-80 90l-80 -90h-90z" />
    <glyph glyph-name="Edieresis" unicode="&#xcb;" horiz-adv-x="550" 
d="M500 580h-285v-145h215v-120h-215v-195h295v-120h-430v700h420v-120zM106 842c0 44 36 78 80 78s80 -34 80 -78s-36 -78 -80 -78s-80 34 -80 78zM316 842c0 44 36 78 80 78s80 -34 80 -78s-36 -78 -80 -78s-80 34 -80 78z" />
    <glyph glyph-name="Igrave" unicode="&#xcc;" horiz-adv-x="295" 
d="M80 0v700h135v-700h-135zM-15 920h140l70 -160h-90z" />
    <glyph glyph-name="Iacute" unicode="&#xcd;" horiz-adv-x="295" 
d="M80 0v700h135v-700h-135zM170 920h140l-120 -160h-90z" />
    <glyph glyph-name="Icircumflex" unicode="&#xce;" horiz-adv-x="295" 
d="M80 0v700h135v-700h-135zM77 920h140l100 -160h-90l-80 90l-80 -90h-90z" />
    <glyph glyph-name="Idieresis" unicode="&#xcf;" horiz-adv-x="295" 
d="M80 0v700h135v-700h-135zM-38 842c0 44 36 78 80 78s80 -34 80 -78s-36 -78 -80 -78s-80 34 -80 78zM172 842c0 44 36 78 80 78s80 -34 80 -78s-36 -78 -80 -78s-80 34 -80 78z" />
    <glyph glyph-name="Eth" unicode="&#xd0;" horiz-adv-x="730" 
d="M0 315v120h100v265h220c111 0 184 -24 241 -66c86 -64 139 -168 139 -284s-53 -220 -139 -284c-57 -42 -130 -66 -241 -66h-220v315h-100zM565 350c0 58 -19 112 -51 152c-39 49 -96 78 -179 78h-100v-145h200v-120h-200v-195h100c83 0 140 29 179 78c32 40 51 94 51 152
z" />
    <glyph glyph-name="Ntilde" unicode="&#xd1;" horiz-adv-x="780" 
d="M80 0v700h95l390 -456v456h135v-700h-95l-390 456v-456h-135zM495 920l80 -16c0 -72 -39 -134 -111 -134c-60 0 -106 50 -149 50c-24 0 -37 -22 -40 -50l-80 16c0 72 39 134 111 134c60 0 106 -50 149 -50c24 0 37 22 40 50z" />
    <glyph glyph-name="Ograve" unicode="&#xd2;" horiz-adv-x="790" 
d="M165 350c0 -132 98 -240 230 -240s230 108 230 240s-98 240 -230 240s-230 -108 -230 -240zM30 350c0 199 149 360 365 360s365 -161 365 -360s-149 -360 -365 -360s-365 161 -365 360zM230 920h140l70 -160h-90z" />
    <glyph glyph-name="Oacute" unicode="&#xd3;" horiz-adv-x="790" 
d="M165 350c0 -132 98 -240 230 -240s230 108 230 240s-98 240 -230 240s-230 -108 -230 -240zM30 350c0 199 149 360 365 360s365 -161 365 -360s-149 -360 -365 -360s-365 161 -365 360zM420 920h140l-120 -160h-90z" />
    <glyph glyph-name="Ocircumflex" unicode="&#xd4;" horiz-adv-x="790" 
d="M165 350c0 -132 98 -240 230 -240s230 108 230 240s-98 240 -230 240s-230 -108 -230 -240zM30 350c0 199 149 360 365 360s365 -161 365 -360s-149 -360 -365 -360s-365 161 -365 360zM325 920h140l100 -160h-90l-80 90l-80 -90h-90z" />
    <glyph glyph-name="Otilde" unicode="&#xd5;" horiz-adv-x="790" 
d="M165 350c0 -132 98 -240 230 -240s230 108 230 240s-98 240 -230 240s-230 -108 -230 -240zM30 350c0 199 149 360 365 360s365 -161 365 -360s-149 -360 -365 -360s-365 161 -365 360zM505 920l80 -16c0 -72 -39 -134 -111 -134c-60 0 -106 50 -149 50
c-24 0 -37 -22 -40 -50l-80 16c0 72 39 134 111 134c60 0 106 -50 149 -50c24 0 37 22 40 50z" />
    <glyph glyph-name="Odieresis" unicode="&#xd6;" horiz-adv-x="790" 
d="M165 350c0 -132 98 -240 230 -240s230 108 230 240s-98 240 -230 240s-230 -108 -230 -240zM30 350c0 199 149 360 365 360s365 -161 365 -360s-149 -360 -365 -360s-365 161 -365 360zM210 842c0 44 36 78 80 78s80 -34 80 -78s-36 -78 -80 -78s-80 34 -80 78zM420 842
c0 44 36 78 80 78s80 -34 80 -78s-36 -78 -80 -78s-80 34 -80 78z" />
    <glyph glyph-name="multiply" unicode="&#xd7;" horiz-adv-x="530" 
d="M120 503l145 -145l145 145l78 -78l-145 -145l145 -145l-78 -78l-145 145l-145 -145l-78 78l145 145l-145 145z" />
    <glyph glyph-name="Oslash" unicode="&#xd8;" horiz-adv-x="790" 
d="M30 350c0 199 149 360 365 360c69 0 131 -17 184 -46l37 46h164l-104 -125c53 -63 84 -145 84 -235c0 -199 -149 -360 -365 -360c-70 0 -132 17 -185 46l-38 -46h-163l105 124c-54 63 -84 146 -84 236zM625 350c0 48 -14 94 -37 132l-295 -348c30 -15 65 -24 102 -24
c132 0 230 108 230 240zM165 350c0 -49 13 -94 36 -132l295 348c-30 15 -65 24 -101 24c-132 0 -230 -108 -230 -240z" />
    <glyph glyph-name="Ugrave" unicode="&#xd9;" horiz-adv-x="750" 
d="M211 920h140l70 -160h-90zM375 -10c-79 0 -156 24 -210 72c-58 52 -90 126 -90 233v405h135v-415c0 -64 17 -103 46 -130c30 -29 72 -45 119 -45s89 16 119 45c29 27 46 66 46 130v415h135v-405c0 -107 -32 -181 -90 -233c-54 -48 -131 -72 -210 -72z" />
    <glyph glyph-name="Uacute" unicode="&#xda;" horiz-adv-x="750" 
d="M400 920h140l-120 -160h-90zM375 -10c-79 0 -156 24 -210 72c-58 52 -90 126 -90 233v405h135v-415c0 -64 17 -103 46 -130c30 -29 72 -45 119 -45s89 16 119 45c29 27 46 66 46 130v415h135v-405c0 -107 -32 -181 -90 -233c-54 -48 -131 -72 -210 -72z" />
    <glyph glyph-name="Ucircumflex" unicode="&#xdb;" horiz-adv-x="750" 
d="M305 920h140l100 -160h-90l-80 90l-80 -90h-90zM375 -10c-79 0 -156 24 -210 72c-58 52 -90 126 -90 233v405h135v-415c0 -64 17 -103 46 -130c30 -29 72 -45 119 -45s89 16 119 45c29 27 46 66 46 130v415h135v-405c0 -107 -32 -181 -90 -233c-54 -48 -131 -72 -210 -72
z" />
    <glyph glyph-name="Udieresis" unicode="&#xdc;" horiz-adv-x="750" 
d="M375 -10c-79 0 -156 24 -210 72c-58 52 -90 126 -90 233v405h135v-415c0 -64 17 -103 46 -130c30 -29 72 -45 119 -45s89 16 119 45c29 27 46 66 46 130v415h135v-405c0 -107 -32 -181 -90 -233c-54 -48 -131 -72 -210 -72zM190 842c0 44 36 78 80 78s80 -34 80 -78
s-36 -78 -80 -78s-80 34 -80 78zM400 842c0 44 36 78 80 78s80 -34 80 -78s-36 -78 -80 -78s-80 34 -80 78z" />
    <glyph glyph-name="Yacute" unicode="&#xdd;" horiz-adv-x="625" 
d="M620 700l-240 -383v-317h-135v317l-240 383h154l154 -246l153 246h154zM337 920h140l-120 -160h-90z" />
    <glyph glyph-name="Thorn" unicode="&#xde;" horiz-adv-x="600" 
d="M80 0v700h135v-140h128c90 0 143 -24 182 -65c35 -36 55 -88 55 -143s-20 -107 -55 -143c-38 -40 -92 -64 -182 -64h-128v-145h-135zM215 265h122c46 0 69 11 85 28c15 16 23 36 23 59s-8 44 -23 60c-16 17 -39 28 -85 28h-122v-175z" />
    <glyph glyph-name="germandbls" unicode="&#xdf;" horiz-adv-x="605" 
d="M281 442c28 0 50 8 65 22c16 15 27 38 27 62c0 46 -36 84 -84 84c-26 0 -49 -11 -64 -29c-13 -15 -20 -35 -20 -75v-506h-130v505c0 17 1 33 3 47c6 41 19 71 39 97c38 49 99 81 171 81c122 0 215 -92 215 -205c0 -44 -16 -86 -43 -117c66 -37 110 -111 110 -191
c0 -126 -99 -227 -226 -227c-40 0 -78 9 -111 27l56 103c15 -6 30 -10 47 -10c62 0 104 47 104 104c0 34 -15 65 -39 84c-18 14 -42 24 -87 24h-33v120z" />
    <glyph glyph-name="agrave" unicode="&#xe0;" horiz-adv-x="615" 
d="M190 720h140l70 -160h-90zM410 170v145c-27 36 -70 60 -120 60c-76 0 -125 -63 -125 -133c0 -76 55 -132 128 -132c49 0 92 24 117 60zM540 485v-485h-125v39c-40 -34 -86 -49 -135 -49c-72 0 -140 32 -183 82c-38 44 -62 104 -62 170c0 143 106 253 238 253
c55 0 104 -18 142 -49v39h125z" />
    <glyph glyph-name="aacute" unicode="&#xe1;" horiz-adv-x="615" 
d="M330 720h140l-120 -160h-90zM410 170v145c-27 36 -70 60 -120 60c-76 0 -125 -63 -125 -133c0 -76 55 -132 128 -132c49 0 92 24 117 60zM540 485v-485h-125v39c-40 -34 -86 -49 -135 -49c-72 0 -140 32 -183 82c-38 44 -62 104 -62 170c0 143 106 253 238 253
c55 0 104 -18 142 -49v39h125z" />
    <glyph glyph-name="acircumflex" unicode="&#xe2;" horiz-adv-x="615" 
d="M245 720h140l100 -160h-90l-80 90l-80 -90h-90zM410 170v145c-27 36 -70 60 -120 60c-76 0 -125 -63 -125 -133c0 -76 55 -132 128 -132c49 0 92 24 117 60zM540 485v-485h-125v39c-40 -34 -86 -49 -135 -49c-72 0 -140 32 -183 82c-38 44 -62 104 -62 170
c0 143 106 253 238 253c55 0 104 -18 142 -49v39h125z" />
    <glyph glyph-name="atilde" unicode="&#xe3;" horiz-adv-x="615" 
d="M430 720l80 -16c0 -72 -39 -134 -111 -134c-60 0 -106 50 -149 50c-24 0 -37 -22 -40 -50l-80 16c0 72 39 134 111 134c60 0 106 -50 149 -50c24 0 37 22 40 50zM410 170v145c-27 36 -70 60 -120 60c-76 0 -125 -63 -125 -133c0 -76 55 -132 128 -132c49 0 92 24 117 60z
M540 485v-485h-125v39c-40 -34 -86 -49 -135 -49c-72 0 -140 32 -183 82c-38 44 -62 104 -62 170c0 143 106 253 238 253c55 0 104 -18 142 -49v39h125z" />
    <glyph glyph-name="adieresis" unicode="&#xe4;" horiz-adv-x="615" 
d="M130 642c0 44 36 78 80 78s80 -34 80 -78s-36 -78 -80 -78s-80 34 -80 78zM340 642c0 44 36 78 80 78s80 -34 80 -78s-36 -78 -80 -78s-80 34 -80 78zM410 170v145c-27 36 -70 60 -120 60c-76 0 -125 -63 -125 -133c0 -76 55 -132 128 -132c49 0 92 24 117 60zM540 485
v-485h-125v39c-40 -34 -86 -49 -135 -49c-72 0 -140 32 -183 82c-38 44 -62 104 -62 170c0 143 106 253 238 253c55 0 104 -18 142 -49v39h125z" />
    <glyph glyph-name="aring" unicode="&#xe5;" horiz-adv-x="615" 
d="M215 650c0 61 49 110 110 110s110 -49 110 -110s-49 -110 -110 -110s-110 49 -110 110zM295 650c0 -17 13 -30 30 -30s30 13 30 30s-13 30 -30 30s-30 -13 -30 -30zM410 170v145c-27 36 -70 60 -120 60c-76 0 -125 -63 -125 -133c0 -76 55 -132 128 -132
c49 0 92 24 117 60zM540 485v-485h-125v39c-40 -34 -86 -49 -135 -49c-72 0 -140 32 -183 82c-38 44 -62 104 -62 170c0 143 106 253 238 253c55 0 104 -18 142 -49v39h125z" />
    <glyph glyph-name="ae" unicode="&#xe6;" horiz-adv-x="921" 
d="M800 151l74 -74c-47 -56 -124 -87 -199 -87c-50 0 -109 20 -145 49v-39h-115v39c-40 -34 -86 -49 -135 -49c-72 0 -140 32 -183 82c-38 44 -62 104 -62 170c0 143 106 253 238 253c55 0 104 -18 142 -49v39h115v-39c28 27 73 49 124 49c128 0 232 -111 232 -248
c0 -13 -1 -26 -3 -37h-346c7 -68 67 -115 136 -115c55 0 104 31 127 56zM410 170v145c-27 36 -70 60 -120 60c-76 0 -125 -63 -125 -133c0 -76 55 -132 128 -132c49 0 92 24 117 60zM543 305h210c-7 48 -53 85 -103 85s-96 -33 -107 -85z" />
    <glyph glyph-name="ccedilla" unicode="&#xe7;" horiz-adv-x="540" 
d="M165 242c0 -76 55 -132 134 -132c53 0 95 32 116 64l100 -75c-47 -62 -103 -96 -172 -105l-27 -144h-130l58 145c-123 21 -209 123 -209 247c0 141 113 253 261 253c84 0 159 -39 204 -97l-92 -81c-26 34 -65 58 -112 58c-75 0 -131 -59 -131 -133z" />
    <glyph glyph-name="egrave" unicode="&#xe8;" horiz-adv-x="535" 
d="M117 720h140l70 -160h-90zM414 151l74 -74c-47 -56 -124 -87 -199 -87c-145 0 -254 100 -254 252c0 135 92 253 236 253c134 0 229 -113 229 -248c0 -13 -1 -26 -3 -37h-336c7 -68 62 -115 131 -115c55 0 99 31 122 56zM167 305h200c-4 43 -43 85 -96 85
c-54 0 -98 -41 -104 -85z" />
    <glyph glyph-name="eacute" unicode="&#xe9;" horiz-adv-x="535" 
d="M297 720h140l-120 -160h-90zM414 151l74 -74c-47 -56 -124 -87 -199 -87c-145 0 -254 100 -254 252c0 135 92 253 236 253c134 0 229 -113 229 -248c0 -13 -1 -26 -3 -37h-336c7 -68 62 -115 131 -115c55 0 99 31 122 56zM167 305h200c-4 43 -43 85 -96 85
c-54 0 -98 -41 -104 -85z" />
    <glyph glyph-name="ecircumflex" unicode="&#xea;" horiz-adv-x="535" 
d="M207 720h140l100 -160h-90l-80 90l-80 -90h-90zM414 151l74 -74c-47 -56 -124 -87 -199 -87c-145 0 -254 100 -254 252c0 135 92 253 236 253c134 0 229 -113 229 -248c0 -13 -1 -26 -3 -37h-336c7 -68 62 -115 131 -115c55 0 99 31 122 56zM167 305h200
c-4 43 -43 85 -96 85c-54 0 -98 -41 -104 -85z" />
    <glyph glyph-name="edieresis" unicode="&#xeb;" horiz-adv-x="535" 
d="M92 642c0 44 36 78 80 78s80 -34 80 -78s-36 -78 -80 -78s-80 34 -80 78zM302 642c0 44 36 78 80 78s80 -34 80 -78s-36 -78 -80 -78s-80 34 -80 78zM414 151l74 -74c-47 -56 -124 -87 -199 -87c-145 0 -254 100 -254 252c0 135 92 253 236 253c134 0 229 -113 229 -248
c0 -13 -1 -26 -3 -37h-336c7 -68 62 -115 131 -115c55 0 99 31 122 56zM167 305h200c-4 43 -43 85 -96 85c-54 0 -98 -41 -104 -85z" />
    <glyph glyph-name="igrave" unicode="&#xec;" horiz-adv-x="280" 
d="M205 485v-485h-130v485h130zM-15 720h140l70 -160h-90z" />
    <glyph glyph-name="iacute" unicode="&#xed;" horiz-adv-x="280" 
d="M205 485v-485h-130v485h130zM155 720h140l-120 -160h-90z" />
    <glyph glyph-name="icircumflex" unicode="&#xee;" horiz-adv-x="280" 
d="M205 485v-485h-130v485h130zM70 720h140l100 -160h-90l-80 90l-80 -90h-90z" />
    <glyph glyph-name="idieresis" unicode="&#xef;" horiz-adv-x="280" 
d="M205 485v-485h-130v485h130zM-44 642c0 44 36 78 80 78s80 -34 80 -78s-36 -78 -80 -78s-80 34 -80 78zM166 642c0 44 36 78 80 78s80 -34 80 -78s-36 -78 -80 -78s-80 34 -80 78z" />
    <glyph glyph-name="eth" unicode="&#xf0;" horiz-adv-x="586" 
d="M94 576l90 51l-58 83h151l15 -21l90 51l49 -88l-80 -46l111 -153c43 -59 89 -134 89 -211c0 -139 -110 -252 -256 -252c-148 0 -260 111 -260 252c0 135 101 247 245 252l-37 51l-99 -56zM423 242c0 45 -20 82 -37 103l-9 11c-18 12 -44 19 -74 19
c-82 0 -138 -55 -138 -133c0 -74 54 -132 130 -132c75 0 128 60 128 132z" />
    <glyph glyph-name="ntilde" unicode="&#xf1;" horiz-adv-x="620" 
d="M205 0h-130v485h125v-39c37 30 83 49 137 49c67 0 128 -30 168 -78c32 -38 50 -87 50 -170v-247h-130v257c0 48 -11 73 -29 91c-17 17 -43 27 -73 27c-55 0 -100 -35 -118 -60v-315zM420 720l80 -16c0 -72 -39 -134 -111 -134c-60 0 -106 50 -149 50
c-24 0 -37 -22 -40 -50l-80 16c0 72 39 134 111 134c60 0 106 -50 149 -50c24 0 37 22 40 50z" />
    <glyph glyph-name="ograve" unicode="&#xf2;" horiz-adv-x="586" 
d="M35 242c0 140 111 253 258 253s258 -113 258 -253s-111 -252 -258 -252s-258 112 -258 252zM165 242c0 -73 52 -132 128 -132s128 59 128 132s-52 133 -128 133s-128 -60 -128 -133zM128 720h140l70 -160h-90z" />
    <glyph glyph-name="oacute" unicode="&#xf3;" horiz-adv-x="586" 
d="M35 242c0 140 111 253 258 253s258 -113 258 -253s-111 -252 -258 -252s-258 112 -258 252zM165 242c0 -73 52 -132 128 -132s128 59 128 132s-52 133 -128 133s-128 -60 -128 -133zM318 720h140l-120 -160h-90z" />
    <glyph glyph-name="ocircumflex" unicode="&#xf4;" horiz-adv-x="586" 
d="M35 242c0 140 111 253 258 253s258 -113 258 -253s-111 -252 -258 -252s-258 112 -258 252zM165 242c0 -73 52 -132 128 -132s128 59 128 132s-52 133 -128 133s-128 -60 -128 -133zM223 720h140l100 -160h-90l-80 90l-80 -90h-90z" />
    <glyph glyph-name="otilde" unicode="&#xf5;" horiz-adv-x="586" 
d="M35 242c0 140 111 253 258 253s258 -113 258 -253s-111 -252 -258 -252s-258 112 -258 252zM165 242c0 -73 52 -132 128 -132s128 59 128 132s-52 133 -128 133s-128 -60 -128 -133zM403 720l80 -16c0 -72 -39 -134 -111 -134c-60 0 -106 50 -149 50
c-24 0 -37 -22 -40 -50l-80 16c0 72 39 134 111 134c60 0 106 -50 149 -50c24 0 37 22 40 50z" />
    <glyph glyph-name="odieresis" unicode="&#xf6;" horiz-adv-x="586" 
d="M35 242c0 140 111 253 258 253s258 -113 258 -253s-111 -252 -258 -252s-258 112 -258 252zM165 242c0 -73 52 -132 128 -132s128 59 128 132s-52 133 -128 133s-128 -60 -128 -133zM108 642c0 44 36 78 80 78s80 -34 80 -78s-36 -78 -80 -78s-80 34 -80 78zM318 642
c0 44 36 78 80 78s80 -34 80 -78s-36 -78 -80 -78s-80 34 -80 78z" />
    <glyph glyph-name="divide" unicode="&#xf7;" horiz-adv-x="550" 
d="M45 335h460v-110h-460v110zM200 457c0 41 34 73 75 73s75 -32 75 -73s-34 -73 -75 -73s-75 32 -75 73zM200 103c0 41 34 73 75 73s75 -32 75 -73s-34 -73 -75 -73s-75 32 -75 73z" />
    <glyph glyph-name="oslash" unicode="&#xf8;" horiz-adv-x="586" 
d="M437 495h143l-82 -98c33 -43 53 -97 53 -155c0 -140 -111 -252 -258 -252c-45 0 -86 10 -121 28l-23 -28h-143l81 98c-33 42 -52 96 -52 154c0 140 111 253 258 253c44 0 85 -10 121 -28zM421 242c0 18 -3 35 -9 51l-151 -180c10 -2 21 -3 32 -3c76 0 128 59 128 132z
M165 242c0 -18 3 -35 9 -50l150 179c-10 3 -20 4 -31 4c-76 0 -128 -60 -128 -133z" />
    <glyph glyph-name="ugrave" unicode="&#xf9;" horiz-adv-x="610" 
d="M140 720h140l70 -160h-90zM405 485h130v-485h-125v39c-38 -34 -84 -49 -131 -49c-67 0 -127 31 -165 78c-31 38 -49 88 -49 160v257h130v-262c0 -44 9 -66 24 -83c20 -22 48 -30 73 -30c55 0 95 37 113 60v315z" />
    <glyph glyph-name="uacute" unicode="&#xfa;" horiz-adv-x="610" 
d="M330 720h140l-120 -160h-90zM405 485h130v-485h-125v39c-38 -34 -84 -49 -131 -49c-67 0 -127 31 -165 78c-31 38 -49 88 -49 160v257h130v-262c0 -44 9 -66 24 -83c20 -22 48 -30 73 -30c55 0 95 37 113 60v315z" />
    <glyph glyph-name="ucircumflex" unicode="&#xfb;" horiz-adv-x="610" 
d="M230 720h140l100 -160h-90l-80 90l-80 -90h-90zM405 485h130v-485h-125v39c-38 -34 -84 -49 -131 -49c-67 0 -127 31 -165 78c-31 38 -49 88 -49 160v257h130v-262c0 -44 9 -66 24 -83c20 -22 48 -30 73 -30c55 0 95 37 113 60v315z" />
    <glyph glyph-name="udieresis" unicode="&#xfc;" horiz-adv-x="610" 
d="M115 642c0 44 36 78 80 78s80 -34 80 -78s-36 -78 -80 -78s-80 34 -80 78zM325 642c0 44 36 78 80 78s80 -34 80 -78s-36 -78 -80 -78s-80 34 -80 78zM405 485h130v-485h-125v39c-38 -34 -84 -49 -131 -49c-67 0 -127 31 -165 78c-31 38 -49 88 -49 160v257h130v-262
c0 -44 9 -66 24 -83c20 -22 48 -30 73 -30c55 0 95 37 113 60v315z" />
    <glyph glyph-name="yacute" unicode="&#xfd;" horiz-adv-x="573" 
d="M320 720h140l-120 -160h-90zM229 -240h-136l134 289l-217 436h143l142 -291l131 291h137z" />
    <glyph glyph-name="thorn" unicode="&#xfe;" horiz-adv-x="615" 
d="M75 710h130v-260c38 30 84 45 137 45c132 0 238 -110 238 -253c0 -66 -23 -126 -61 -170c-43 -50 -112 -82 -184 -82c-49 0 -91 14 -130 44v-274h-130v950zM205 315v-145c25 -36 68 -60 117 -60c73 0 128 56 128 132c0 70 -49 133 -125 133c-50 0 -93 -24 -120 -60z" />
    <glyph glyph-name="ydieresis" unicode="&#xff;" horiz-adv-x="573" 
d="M105 642c0 44 36 78 80 78s80 -34 80 -78s-36 -78 -80 -78s-80 34 -80 78zM315 642c0 44 36 78 80 78s80 -34 80 -78s-36 -78 -80 -78s-80 34 -80 78zM229 -240h-136l134 289l-217 436h143l142 -291l131 291h137z" />
    <glyph glyph-name="dotlessi" unicode="&#x131;" horiz-adv-x="280" 
d="M205 485v-485h-130v485h130z" />
    <glyph glyph-name="Lslash" unicode="&#x141;" horiz-adv-x="545" 
d="M85 0v266l-110 -64v132l110 64v302h135v-224l140 81v-132l-140 -81v-224h295v-120h-430z" />
    <glyph glyph-name="lslash" unicode="&#x142;" horiz-adv-x="280" 
d="M205 710v-237l110 64v-132l-110 -64v-341h-130v266l-110 -64v132l110 64v312h130z" />
    <glyph glyph-name="OE" unicode="&#x152;" horiz-adv-x="1095" 
d="M1045 580h-285v-145h225v-120h-225v-195h295v-120h-430v69c-61 -50 -140 -79 -230 -79c-211 0 -365 161 -365 360s154 360 365 360c90 0 169 -30 230 -79v69h420v-120zM165 350c0 -132 98 -240 230 -240s230 108 230 240s-98 240 -230 240s-230 -108 -230 -240z" />
    <glyph glyph-name="oe" unicode="&#x153;" horiz-adv-x="921" 
d="M800 151l74 -74c-47 -56 -124 -87 -199 -87c-82 0 -149 31 -192 86c-44 -51 -111 -86 -190 -86c-147 0 -258 112 -258 252s111 253 258 253c79 0 145 -34 189 -86c38 52 98 86 175 86c134 0 229 -113 229 -248c0 -13 -1 -26 -3 -37h-336c7 -68 62 -115 131 -115
c55 0 99 31 122 56zM165 242c0 -73 52 -132 128 -132s128 59 128 132s-52 133 -128 133s-128 -60 -128 -133zM553 305h200c-4 43 -43 85 -96 85c-54 0 -98 -41 -104 -85z" />
    <glyph glyph-name="Scaron" unicode="&#x160;" horiz-adv-x="535" 
d="M335 760h-140l-100 160h90l80 -90l80 90h90zM10 95l88 92c40 -44 101 -77 165 -77c60 0 102 37 102 88c0 90 -130 101 -224 156c-55 32 -99 80 -99 159c0 125 115 197 231 197c71 0 137 -17 203 -66l-70 -100c-28 26 -75 46 -121 46c-51 0 -108 -22 -108 -76
c0 -113 323 -78 323 -314c0 -124 -111 -210 -237 -210c-94 0 -181 39 -253 105z" />
    <glyph glyph-name="scaron" unicode="&#x161;" horiz-adv-x="460" 
d="M300 560h-140l-100 160h90l80 -90l80 90h90zM27 55l63 93c33 -30 84 -48 133 -48c35 0 62 17 62 41c0 73 -235 47 -235 203c0 93 90 151 186 151c63 0 132 -24 164 -49l-61 -94c-25 18 -58 33 -93 33c-36 0 -66 -14 -66 -39c0 -63 235 -38 235 -206
c0 -93 -91 -150 -193 -150c-67 0 -138 23 -195 65z" />
    <glyph glyph-name="Ydieresis" unicode="&#x178;" horiz-adv-x="625" 
d="M620 700l-240 -383v-317h-135v317l-240 383h154l154 -246l153 246h154zM128 842c0 44 36 78 80 78s80 -34 80 -78s-36 -78 -80 -78s-80 34 -80 78zM338 842c0 44 36 78 80 78s80 -34 80 -78s-36 -78 -80 -78s-80 34 -80 78z" />
    <glyph glyph-name="Zcaron" unicode="&#x17d;" horiz-adv-x="615" 
d="M40 0v80l340 500h-310v120h490v-80l-341 -500h361v-120h-540zM380 760h-140l-100 160h90l80 -90l80 90h90z" />
    <glyph glyph-name="zcaron" unicode="&#x17e;" horiz-adv-x="530" 
d="M335 560h-140l-100 160h90l80 -90l80 90h90zM460 485v-80l-235 -295h255v-110h-430v80l232 295h-212v110h390z" />
    <glyph glyph-name="longs" unicode="&#x17f;" horiz-adv-x="411" 
d="M205 520v-520h-130v505c0 79 21 131 59 167c39 37 96 58 162 58c37 0 82 -11 110 -26l-46 -104c-17 8 -42 15 -64 15c-25 0 -52 -7 -69 -26c-13 -14 -22 -33 -22 -69z" />
    <glyph glyph-name="florin" unicode="&#x192;" horiz-adv-x="536" 
d="M-83 -229l33 108c13 -5 38 -14 66 -14c60 0 101 33 120 93c25 80 38 212 53 337h-160v110h174c8 54 16 103 27 138c39 129 131 177 243 177c28 0 70 -8 99 -21l-33 -108c-13 5 -38 14 -66 14c-60 0 -101 -33 -120 -93c-10 -30 -17 -66 -24 -107h170v-110h-186
c-17 -137 -30 -288 -54 -368c-39 -129 -131 -177 -243 -177c-28 0 -70 8 -99 21z" />
    <glyph glyph-name="circumflex" unicode="&#x2c6;" horiz-adv-x="480" 
d="M170 720h140l100 -160h-90l-80 90l-80 -90h-90z" />
    <glyph glyph-name="caron" unicode="&#x2c7;" horiz-adv-x="480" 
d="M310 560h-140l-100 160h90l80 -90l80 90h90z" />
    <glyph glyph-name="uni02C9" unicode="&#x2c9;" horiz-adv-x="500" 
d="M70 690h320v-100h-320v100z" />
    <glyph glyph-name="breve" unicode="&#x2d8;" horiz-adv-x="440" 
d="M265 720h105c0 -83 -67 -150 -150 -150s-150 67 -150 150h105c0 -25 20 -45 45 -45s45 20 45 45z" />
    <glyph glyph-name="dotaccent" unicode="&#x2d9;" horiz-adv-x="310" 
d="M70 657c0 47 38 83 85 83s85 -36 85 -83s-38 -83 -85 -83s-85 36 -85 83z" />
    <glyph glyph-name="ring" unicode="&#x2da;" horiz-adv-x="360" 
d="M70 650c0 61 49 110 110 110s110 -49 110 -110s-49 -110 -110 -110s-110 49 -110 110zM150 650c0 -17 13 -30 30 -30s30 13 30 30s-13 30 -30 30s-30 -13 -30 -30z" />
    <glyph glyph-name="ogonek" unicode="&#x2db;" horiz-adv-x="340" 
d="M108 10h115c-10 -12 -33 -46 -33 -73c0 -24 16 -42 40 -42c13 0 22 3 25 4l15 -109c-8 -4 -32 -10 -65 -10c-83 0 -135 53 -135 120c0 58 28 96 38 110z" />
    <glyph glyph-name="tilde" unicode="&#x2dc;" horiz-adv-x="520" 
d="M370 720l80 -16c0 -72 -39 -134 -111 -134c-60 0 -106 50 -149 50c-24 0 -37 -22 -40 -50l-80 16c0 72 39 134 111 134c60 0 106 -50 149 -50c24 0 37 22 40 50z" />
    <glyph glyph-name="hungarumlaut" unicode="&#x2dd;" horiz-adv-x="570" 
d="M140 720h140l-120 -160h-90zM360 720h140l-120 -160h-90z" />
    <glyph glyph-name="uni0394" unicode="&#x394;" 
d="M10 70l240 630h90l240 -630v-70h-570v70zM295 510l-152 -400h304z" />
    <glyph glyph-name="uni03A9" unicode="&#x3a9;" horiz-adv-x="750" 
d="M375 590c-131 0 -220 -108 -220 -245c0 -112 57 -201 143 -265v-80h-273v120h73c-39 52 -73 136 -73 230c0 199 149 360 350 360s350 -161 350 -360c0 -94 -34 -178 -73 -230h73v-120h-273v80c86 64 143 153 143 265c0 137 -89 245 -220 245z" />
    <glyph glyph-name="uni03BC" unicode="&#x3bc;" horiz-adv-x="620" 
d="M415 485h130v-485h-125v39c-38 -34 -84 -49 -131 -49c-30 0 -61 8 -84 22v-252h-130v725h130v-262c0 -44 9 -66 24 -83c20 -22 48 -30 73 -30c55 0 95 37 113 60v315z" />
    <glyph glyph-name="pi" unicode="&#x3c0;" horiz-adv-x="577" 
d="M128 0v359c-24 -3 -48 -17 -63 -36l-70 72c20 30 48 49 81 61c21 8 54 14 93 14h398v-110h-100v-207c0 -42 7 -60 34 -83l-85 -80c-60 45 -69 92 -69 171v199h-99v-360h-120z" />
    <glyph glyph-name="endash" unicode="&#x2013;" horiz-adv-x="520" 
d="M15 315h490v-110h-490v110z" />
    <glyph glyph-name="emdash" unicode="&#x2014;" horiz-adv-x="820" 
d="M15 315h790v-110h-790v110z" />
    <glyph glyph-name="quoteleft" unicode="&#x2018;" horiz-adv-x="325" 
d="M190 405h-140l120 295h95z" />
    <glyph glyph-name="quoteright" unicode="&#x2019;" horiz-adv-x="325" 
d="M135 700h140l-120 -295h-95z" />
    <glyph glyph-name="quotesinglbase" unicode="&#x201a;" horiz-adv-x="325" 
d="M135 155h140l-120 -295h-95z" />
    <glyph glyph-name="quotedblleft" unicode="&#x201c;" horiz-adv-x="565" 
d="M430 405h-140l120 295h95zM190 405h-140l120 295h95z" />
    <glyph glyph-name="quotedblright" unicode="&#x201d;" horiz-adv-x="565" 
d="M135 700h140l-120 -295h-95zM375 700h140l-120 -295h-95z" />
    <glyph glyph-name="quotedblbase" unicode="&#x201e;" horiz-adv-x="565" 
d="M135 155h140l-120 -295h-95zM375 155h140l-120 -295h-95z" />
    <glyph glyph-name="dagger" unicode="&#x2020;" horiz-adv-x="550" 
d="M335 365v-565h-120v565h-170v110h170v225h120v-225h170v-110h-170z" />
    <glyph glyph-name="daggerdbl" unicode="&#x2021;" horiz-adv-x="550" 
d="M335 206h170v-110h-170v-296h-120v296h-170v110h170v159h-170v110h170v225h120v-225h170v-110h-170v-159z" />
    <glyph glyph-name="bullet" unicode="&#x2022;" horiz-adv-x="600" 
d="M80 242c0 121 99 220 220 220s220 -99 220 -220s-99 -220 -220 -220s-220 99 -220 220z" />
    <glyph glyph-name="ellipsis" unicode="&#x2026;" horiz-adv-x="995" 
d="M110 75c0 49 38 86 87 86s88 -37 88 -86s-39 -85 -88 -85s-87 36 -87 85zM420 75c0 49 38 86 87 86s88 -37 88 -86s-39 -85 -88 -85s-87 36 -87 85zM730 75c0 49 38 86 87 86s88 -37 88 -86s-39 -85 -88 -85s-87 36 -87 85z" />
    <glyph glyph-name="perthousand" unicode="&#x2030;" horiz-adv-x="1225" 
d="M535 175c0 102 82 185 190 185c51 0 96 -19 130 -49c33 30 79 49 130 49c108 0 190 -83 190 -185s-82 -185 -190 -185c-51 0 -97 18 -130 49c-34 -31 -79 -49 -130 -49c-108 0 -190 83 -190 185zM50 525c0 102 82 185 190 185s190 -83 190 -185s-82 -185 -190 -185
s-190 83 -190 185zM310 525c0 41 -27 75 -70 75s-70 -34 -70 -75s27 -75 70 -75s70 34 70 75zM795 175c0 41 -27 75 -70 75s-70 -34 -70 -75s27 -75 70 -75s70 34 70 75zM1055 175c0 41 -27 75 -70 75s-70 -34 -70 -75s27 -75 70 -75s70 34 70 75zM335 0h-111l409 700h111z
" />
    <glyph glyph-name="guilsinglleft" unicode="&#x2039;" horiz-adv-x="379" 
d="M196 437h143l-156 -190l156 -190h-143l-126 155v70z" />
    <glyph glyph-name="guilsinglright" unicode="&#x203a;" horiz-adv-x="379" 
d="M40 437h143l126 -155v-70l-126 -155h-143l156 190z" />
    <glyph glyph-name="fraction" unicode="&#x2044;" horiz-adv-x="530" 
d="M116 0h-111l409 700h111z" />
    <glyph glyph-name="uni2070" unicode="&#x2070;" horiz-adv-x="338" 
d="M130 520c0 -52 7 -100 39 -100s39 48 39 100s-7 100 -39 100s-39 -48 -39 -100zM30 520c0 100 35 190 139 190c108 0 139 -90 139 -190s-31 -190 -139 -190c-104 0 -139 90 -139 190z" />
    <glyph glyph-name="uni2074" unicode="&#x2074;" horiz-adv-x="350" 
d="M264 700v-215h66v-75h-66v-70h-85v70h-159v50l184 240h60zM134 485h45v58z" />
    <glyph glyph-name="uni2075" unicode="&#x2075;" horiz-adv-x="294" 
d="M10 382l66 54c11 -14 29 -26 51 -26c27 0 49 19 49 48s-24 48 -51 48c-12 0 -27 -5 -36 -11l-54 8l19 197h190v-80h-110l-3 -35h7c88 0 131 -66 131 -127c0 -77 -59 -128 -141 -128c-52 0 -94 22 -118 52z" />
    <glyph glyph-name="uni2076" unicode="&#x2076;" horiz-adv-x="330" 
d="M210 459c0 24 -17 44 -44 44c-14 0 -26 -5 -34 -11c-7 -9 -12 -21 -12 -33c0 -25 19 -44 46 -44c24 0 44 20 44 44zM255 700l-73 -118c79 -1 123 -59 123 -123c0 -72 -65 -129 -142 -129c-80 0 -138 57 -138 127c0 42 22 79 36 103l86 140h108z" />
    <glyph glyph-name="uni2077" unicode="&#x2077;" horiz-adv-x="285" 
d="M20 700h250v-50l-140 -310h-100l123 275h-133v85z" />
    <glyph glyph-name="uni2078" unicode="&#x2078;" horiz-adv-x="324" 
d="M282 601c0 -24 -9 -45 -25 -60c27 -20 42 -53 42 -89c0 -67 -56 -122 -137 -122s-137 55 -137 122c0 36 18 68 44 89c-15 15 -27 38 -27 63c0 56 50 106 120 106c71 0 120 -52 120 -109zM120 454c0 -22 16 -39 42 -39s42 17 42 39s-16 40 -42 40s-42 -18 -42 -40z
M135 597c0 -15 11 -27 27 -27s27 12 27 27s-11 28 -27 28s-27 -13 -27 -28z" />
    <glyph glyph-name="uni2079" unicode="&#x2079;" horiz-adv-x="330" 
d="M120 581c0 -24 17 -44 44 -44c14 0 26 5 34 11c7 9 12 21 12 33c0 25 -19 44 -46 44c-24 0 -44 -20 -44 -44zM75 340l73 118c-79 1 -123 59 -123 123c0 71 64 129 140 129c68 0 140 -48 140 -127c0 -42 -22 -79 -36 -103l-86 -140h-108z" />
    <glyph glyph-name="uni2080" unicode="&#x2080;" horiz-adv-x="338" 
d="M130 180c0 -52 7 -100 39 -100s39 48 39 100s-7 100 -39 100s-39 -48 -39 -100zM30 180c0 100 35 190 139 190c108 0 139 -90 139 -190s-31 -190 -139 -190c-104 0 -139 90 -139 190z" />
    <glyph glyph-name="uni2081" unicode="&#x2081;" horiz-adv-x="265" 
d="M30 181v102l130 67h60v-350h-100v227z" />
    <glyph glyph-name="uni2082" unicode="&#x2082;" horiz-adv-x="312" 
d="M125 254l-90 26c15 55 66 90 125 90c65 0 120 -46 120 -113c0 -36 -17 -68 -42 -99l-59 -73h108v-85h-257v50l131 159c15 19 21 31 21 43c0 15 -9 28 -26 28c-15 0 -26 -11 -31 -26z" />
    <glyph glyph-name="uni2083" unicode="&#x2083;" horiz-adv-x="296" 
d="M78 156v50l58 74h-114v80h230v-50l-60 -85c46 -19 74 -61 74 -108c0 -76 -68 -127 -144 -127c-46 0 -89 16 -122 49l59 60c8 -10 27 -27 60 -27c25 0 49 17 49 45c0 27 -23 47 -51 47c-15 0 -29 -4 -39 -8z" />
    <glyph glyph-name="uni2084" unicode="&#x2084;" horiz-adv-x="350" 
d="M264 360v-215h66v-75h-66v-70h-85v70h-159v50l184 240h60zM134 145h45v58z" />
    <glyph glyph-name="uni2085" unicode="&#x2085;" horiz-adv-x="294" 
d="M10 42l66 54c11 -14 29 -26 51 -26c27 0 49 19 49 48s-24 48 -51 48c-12 0 -27 -5 -36 -11l-54 8l19 197h190v-80h-110l-3 -35h7c88 0 131 -66 131 -127c0 -77 -59 -128 -141 -128c-52 0 -94 22 -118 52z" />
    <glyph glyph-name="uni2086" unicode="&#x2086;" horiz-adv-x="330" 
d="M210 119c0 24 -17 44 -44 44c-14 0 -26 -5 -34 -11c-7 -9 -12 -21 -12 -33c0 -25 19 -44 46 -44c24 0 44 20 44 44zM255 360l-73 -118c79 -1 123 -59 123 -123c0 -72 -65 -129 -142 -129c-80 0 -138 57 -138 127c0 42 22 79 36 103l86 140h108z" />
    <glyph glyph-name="uni2087" unicode="&#x2087;" horiz-adv-x="285" 
d="M20 360h250v-50l-140 -310h-100l123 275h-133v85z" />
    <glyph glyph-name="uni2088" unicode="&#x2088;" horiz-adv-x="324" 
d="M282 261c0 -24 -9 -45 -25 -60c27 -20 42 -53 42 -89c0 -67 -56 -122 -137 -122s-137 55 -137 122c0 36 18 68 44 89c-15 15 -27 38 -27 63c0 56 50 106 120 106c71 0 120 -52 120 -109zM120 114c0 -22 16 -39 42 -39s42 17 42 39s-16 40 -42 40s-42 -18 -42 -40z
M135 257c0 -15 11 -27 27 -27s27 12 27 27s-11 28 -27 28s-27 -13 -27 -28z" />
    <glyph glyph-name="uni2089" unicode="&#x2089;" horiz-adv-x="330" 
d="M120 241c0 -24 17 -44 44 -44c14 0 26 5 34 11c7 9 12 21 12 33c0 25 -19 44 -46 44c-24 0 -44 -20 -44 -44zM75 0l73 118c-79 1 -123 59 -123 123c0 71 64 129 140 129c68 0 140 -48 140 -127c0 -42 -22 -79 -36 -103l-86 -140h-108z" />
    <glyph glyph-name="Euro" unicode="&#x20ac;" horiz-adv-x="650" 
d="M-5 375v110h91c45 132 156 225 299 225c98 0 177 -45 232 -117l-97 -79c-32 47 -78 76 -133 76c-68 0 -125 -39 -156 -105h235v-110h-265c-1 -8 -1 -17 -1 -25c0 -9 0 -17 1 -25h265v-110h-237c28 -66 88 -105 158 -105c67 0 120 36 153 91l100 -75
c-59 -81 -138 -136 -253 -136c-146 0 -257 90 -302 225h-90v110h70v50h-70z" />
    <glyph glyph-name="trademark" unicode="&#x2122;" horiz-adv-x="880" 
d="M70 700h287v-80h-100v-303h-87v303h-100v80zM460 700l149 -217l148 217h53v-383h-89v183l-91 -131h-44l-91 131v-183h-89v383h54z" />
    <glyph glyph-name="Omega" unicode="&#x2126;" horiz-adv-x="750" 
d="M375 590c-131 0 -220 -108 -220 -245c0 -112 57 -201 143 -265v-80h-273v120h73c-39 52 -73 136 -73 230c0 199 149 360 350 360s350 -161 350 -360c0 -94 -34 -178 -73 -230h73v-120h-273v80c86 64 143 153 143 265c0 137 -89 245 -220 245z" />
    <glyph glyph-name="arrowleft" unicode="&#x2190;" horiz-adv-x="716" 
d="M656 205h-421l170 -170h-156l-189 190v70l189 190h156l-170 -170h421v-110z" />
    <glyph glyph-name="arrowright" unicode="&#x2192;" horiz-adv-x="716" 
d="M481 205h-421v110h421l-170 170h156l189 -190v-70l-189 -190h-156z" />
    <glyph glyph-name="uni2196" unicode="&#x2196;" horiz-adv-x="605" 
d="M110 485h266l110 -110h-239l298 -298l-77 -77l-298 298v-238l-110 110v265z" />
    <glyph glyph-name="uni2197" unicode="&#x2197;" horiz-adv-x="605" 
d="M229 485h266l50 -50v-265l-110 -110v238l-298 -298l-77 77l298 298h-239z" />
    <glyph glyph-name="uni2198" unicode="&#x2198;" horiz-adv-x="605" 
d="M495 0h-266l-110 110h239l-298 298l77 77l298 -298v238l110 -110v-265z" />
    <glyph glyph-name="uni2199" unicode="&#x2199;" horiz-adv-x="605" 
d="M376 0h-266l-50 50v265l110 110v-238l298 298l77 -77l-298 -298h239z" />
    <glyph glyph-name="partialdiff" unicode="&#x2202;" horiz-adv-x="596" 
d="M285 494l-154 216h151l185 -257c43 -59 89 -134 89 -211c0 -139 -110 -252 -256 -252c-148 0 -260 111 -260 252c0 135 101 247 245 252zM428 242c0 45 -20 82 -37 103l-9 11c-18 12 -44 19 -74 19c-82 0 -138 -55 -138 -133c0 -74 54 -132 130 -132c75 0 128 60 128 132
z" />
    <glyph glyph-name="Delta" unicode="&#x2206;" 
d="M10 70l240 630h90l240 -630v-70h-570v70zM295 510l-152 -400h304z" />
    <glyph glyph-name="product" unicode="&#x220f;" 
d="M15 700h560v-110h-100v-590h-120v590h-120v-590h-120v590h-100v110z" />
    <glyph glyph-name="summation" unicode="&#x2211;" horiz-adv-x="585" 
d="M390 326l-206 -216h251v100h110v-210h-550v70l274 290l-264 270v70h530v-210h-110v100h-227l192 -194v-70z" />
    <glyph glyph-name="minus" unicode="&#x2212;" horiz-adv-x="550" 
d="M45 335h460v-110h-460v110z" />
    <glyph glyph-name="uni2215" unicode="&#x2215;" horiz-adv-x="530" 
d="M116 0h-111l409 700h111z" />
    <glyph glyph-name="uni2219" unicode="&#x2219;" horiz-adv-x="375" 
d="M100 242c0 49 38 88 87 88s88 -39 88 -88s-39 -87 -88 -87s-87 38 -87 87z" />
    <glyph glyph-name="radical" unicode="&#x221a;" horiz-adv-x="610" 
d="M-10 485h167l141 -306l186 521h116l-249 -700h-90l-175 375h-96v110z" />
    <glyph glyph-name="infinity" unicode="&#x221e;" horiz-adv-x="780" 
d="M755 277c0 -125 -94 -207 -202 -207c-80 0 -128 41 -163 94c-35 -53 -83 -94 -163 -94c-108 0 -202 82 -202 207s94 207 202 207c80 0 128 -42 163 -94c35 52 83 94 163 94c108 0 202 -82 202 -207zM553 374c-49 0 -76 -43 -103 -97c27 -54 54 -97 103 -97
c57 0 92 43 92 97s-35 97 -92 97zM227 180c48 0 76 43 103 97c-27 54 -55 97 -103 97c-57 0 -92 -43 -92 -97s35 -97 92 -97z" />
    <glyph glyph-name="integral" unicode="&#x222b;" horiz-adv-x="555" 
d="M-105 -229l33 108c13 -5 38 -14 66 -14c60 0 101 33 120 93c45 143 55 455 94 585c39 129 131 177 243 177c28 0 70 -8 99 -21l-33 -108c-13 5 -38 14 -66 14c-60 0 -101 -33 -120 -93c-45 -143 -55 -455 -94 -585c-39 -129 -131 -177 -243 -177c-28 0 -70 8 -99 21z" />
    <glyph glyph-name="approxequal" unicode="&#x2248;" horiz-adv-x="570" 
d="M127 78l-107 27c17 83 71 162 168 162c96 0 141 -84 190 -84c34 0 57 35 65 79l107 -27c-17 -83 -71 -162 -168 -162c-96 0 -141 84 -190 84c-34 0 -57 -35 -65 -79zM127 298l-107 27c17 83 71 162 168 162c96 0 141 -84 190 -84c34 0 57 35 65 79l107 -27
c-17 -83 -71 -162 -168 -162c-96 0 -141 84 -190 84c-34 0 -57 -35 -65 -79z" />
    <glyph glyph-name="notequal" unicode="&#x2260;" horiz-adv-x="550" 
d="M495 550l-62 -110h72v-110h-134l-56 -100h190v-110h-252l-62 -110h-126l62 110h-82v110h144l56 100h-200v110h262l62 110h126z" />
    <glyph glyph-name="lessequal" unicode="&#x2264;" horiz-adv-x="550" 
d="M45 140h460v-110h-460v110zM505 419l-218 -70l218 -70v-116l-460 151v70l460 151v-116z" />
    <glyph glyph-name="greaterequal" unicode="&#x2265;" horiz-adv-x="550" 
d="M45 140h460v-110h-460v110zM263 349l-218 70v116l460 -151v-70l-460 -151v116z" />
    <glyph glyph-name="lozenge" unicode="&#x25ca;" horiz-adv-x="560" 
d="M235 0l-200 315v70l200 315h90l200 -315v-70l-200 -315h-90zM142 350l138 -216l137 216l-137 215z" />
    <glyph glyph-name="uniFB00" unicode="&#xfb00;" horiz-adv-x="830" 
d="M795 711l-20 -111c-11 3 -27 5 -39 5c-32 0 -57 -9 -73 -28c-11 -14 -18 -32 -18 -77v-15h150v-110h-150v-375h-130v375h-240v-375h-130v375h-125v110h125v20c0 78 18 125 52 158s85 57 151 57c26 0 50 -2 77 -9l-20 -111c-11 3 -27 5 -39 5c-32 0 -57 -9 -73 -28
c-11 -14 -18 -32 -18 -77v-15h240v20c0 78 18 125 52 158s85 57 151 57c26 0 50 -2 77 -9z" />
    <glyph glyph-name="fi" unicode="&#xfb01;" horiz-adv-x="720" 
d="M425 711l-20 -111c-11 3 -27 5 -39 5c-32 0 -57 -9 -73 -28c-11 -14 -18 -32 -18 -77v-15h370v-485h-130v375h-240v-375h-130v375h-125v110h125v20c0 78 18 125 52 158s85 57 151 57c26 0 50 -2 77 -9zM495 657c0 47 38 83 85 83s85 -36 85 -83s-38 -83 -85 -83
s-85 36 -85 83z" />
    <glyph glyph-name="fl" unicode="&#xfb02;" horiz-adv-x="720" 
d="M425 711l-20 -111c-11 3 -27 5 -39 5c-32 0 -57 -9 -73 -28c-11 -14 -18 -32 -18 -77v-15h240v225h130v-710h-130v375h-240v-375h-130v375h-125v110h125v20c0 78 18 125 52 158s85 57 151 57c26 0 50 -2 77 -9z" />
    <glyph glyph-name="uniFB03" unicode="&#xfb03;" horiz-adv-x="1090" 
d="M795 711l-20 -111c-11 3 -27 5 -39 5c-32 0 -57 -9 -73 -28c-11 -14 -18 -32 -18 -77v-15h370v-485h-130v375h-240v-375h-130v375h-240v-375h-130v375h-125v110h125v20c0 78 18 125 52 158s85 57 151 57c26 0 50 -2 77 -9l-20 -111c-11 3 -27 5 -39 5
c-32 0 -57 -9 -73 -28c-11 -14 -18 -32 -18 -77v-15h240v20c0 78 18 125 52 158s85 57 151 57c26 0 50 -2 77 -9zM865 657c0 47 38 83 85 83s85 -36 85 -83s-38 -83 -85 -83s-85 36 -85 83z" />
    <glyph glyph-name="uniFB04" unicode="&#xfb04;" horiz-adv-x="1090" 
d="M795 711l-20 -111c-11 3 -27 5 -39 5c-32 0 -57 -9 -73 -28c-11 -14 -18 -32 -18 -77v-15h240v225h130v-710h-130v375h-240v-375h-130v375h-240v-375h-130v375h-125v110h125v20c0 78 18 125 52 158s85 57 151 57c26 0 50 -2 77 -9l-20 -111c-11 3 -27 5 -39 5
c-32 0 -57 -9 -73 -28c-11 -14 -18 -32 -18 -77v-15h240v20c0 78 18 125 52 158s85 57 151 57c26 0 50 -2 77 -9z" />
    <glyph glyph-name="zero.numr" horiz-adv-x="338" 
d="M130 520c0 -52 7 -100 39 -100s39 48 39 100s-7 100 -39 100s-39 -48 -39 -100zM30 520c0 100 35 190 139 190c108 0 139 -90 139 -190s-31 -190 -139 -190c-104 0 -139 90 -139 190z" />
    <glyph glyph-name="one.numr" horiz-adv-x="260" 
d="M30 541v97l120 62h60v-360h-100v242z" />
    <glyph glyph-name="two.numr" horiz-adv-x="317" 
d="M125 594l-90 26c15 55 66 90 125 90c65 0 120 -46 120 -113c0 -36 -17 -68 -42 -99l-59 -73h108v-85h-257v50l131 159c15 19 21 31 21 43c0 15 -9 28 -26 28c-15 0 -26 -11 -31 -26z" />
    <glyph glyph-name="three.numr" horiz-adv-x="296" 
d="M78 496v50l58 74h-114v80h230v-50l-60 -85c46 -19 74 -61 74 -108c0 -76 -68 -127 -144 -127c-46 0 -89 16 -122 49l59 60c8 -10 27 -27 60 -27c25 0 49 17 49 45c0 27 -23 47 -51 47c-15 0 -29 -4 -39 -8z" />
    <glyph glyph-name="four.numr" horiz-adv-x="350" 
d="M264 700v-215h66v-75h-66v-70h-85v70h-159v50l184 240h60zM134 485h45v58z" />
    <glyph glyph-name="five.numr" horiz-adv-x="294" 
d="M10 382l66 54c11 -14 29 -26 51 -26c27 0 49 19 49 48s-24 48 -51 48c-12 0 -27 -5 -36 -11l-54 8l19 197h190v-80h-110l-3 -35h7c88 0 131 -66 131 -127c0 -77 -59 -128 -141 -128c-52 0 -94 22 -118 52z" />
    <glyph glyph-name="six.numr" horiz-adv-x="330" 
d="M210 459c0 24 -17 44 -44 44c-14 0 -26 -5 -34 -11c-7 -9 -12 -21 -12 -33c0 -25 19 -44 46 -44c24 0 44 20 44 44zM255 700l-73 -118c79 -1 123 -59 123 -123c0 -72 -65 -129 -142 -129c-80 0 -138 57 -138 127c0 42 22 79 36 103l86 140h108z" />
    <glyph glyph-name="seven.numr" horiz-adv-x="285" 
d="M20 700h250v-50l-140 -310h-100l123 275h-133v85z" />
    <glyph glyph-name="eight.numr" horiz-adv-x="324" 
d="M282 601c0 -24 -9 -45 -25 -60c27 -20 42 -53 42 -89c0 -67 -56 -122 -137 -122s-137 55 -137 122c0 36 18 68 44 89c-15 15 -27 38 -27 63c0 56 50 106 120 106c71 0 120 -52 120 -109zM120 454c0 -22 16 -39 42 -39s42 17 42 39s-16 40 -42 40s-42 -18 -42 -40z
M135 597c0 -15 11 -27 27 -27s27 12 27 27s-11 28 -27 28s-27 -13 -27 -28z" />
    <glyph glyph-name="nine.numr" horiz-adv-x="330" 
d="M120 581c0 -24 17 -44 44 -44c14 0 26 5 34 11c7 9 12 21 12 33c0 25 -19 44 -46 44c-24 0 -44 -20 -44 -44zM75 340l73 118c-79 1 -123 59 -123 123c0 71 64 129 140 129c68 0 140 -48 140 -127c0 -42 -22 -79 -36 -103l-86 -140h-108z" />
    <glyph glyph-name="zero.dnom" horiz-adv-x="338" 
d="M130 180c0 -52 7 -100 39 -100s39 48 39 100s-7 100 -39 100s-39 -48 -39 -100zM30 180c0 100 35 190 139 190c108 0 139 -90 139 -190s-31 -190 -139 -190c-104 0 -139 90 -139 190z" />
    <glyph glyph-name="one.dnom" horiz-adv-x="260" 
d="M30 201v97l120 62h60v-360h-100v242z" />
    <glyph glyph-name="two.dnom" horiz-adv-x="317" 
d="M125 254l-90 26c15 55 66 90 125 90c65 0 120 -46 120 -113c0 -36 -17 -68 -42 -99l-59 -73h108v-85h-257v50l131 159c15 19 21 31 21 43c0 15 -9 28 -26 28c-15 0 -26 -11 -31 -26z" />
    <glyph glyph-name="three.dnom" horiz-adv-x="296" 
d="M78 156v50l58 74h-114v80h230v-50l-60 -85c46 -19 74 -61 74 -108c0 -76 -68 -127 -144 -127c-46 0 -89 16 -122 49l59 60c8 -10 27 -27 60 -27c25 0 49 17 49 45c0 27 -23 47 -51 47c-15 0 -29 -4 -39 -8z" />
    <glyph glyph-name="four.dnom" horiz-adv-x="350" 
d="M264 360v-215h66v-75h-66v-70h-85v70h-159v50l184 240h60zM134 145h45v58z" />
    <glyph glyph-name="five.dnom" horiz-adv-x="294" 
d="M10 42l66 54c11 -14 29 -26 51 -26c27 0 49 19 49 48s-24 48 -51 48c-12 0 -27 -5 -36 -11l-54 8l19 197h190v-80h-110l-3 -35h7c88 0 131 -66 131 -127c0 -77 -59 -128 -141 -128c-52 0 -94 22 -118 52z" />
    <glyph glyph-name="six.dnom" horiz-adv-x="330" 
d="M210 119c0 24 -17 44 -44 44c-14 0 -26 -5 -34 -11c-7 -9 -12 -21 -12 -33c0 -25 19 -44 46 -44c24 0 44 20 44 44zM255 360l-73 -118c79 -1 123 -59 123 -123c0 -72 -65 -129 -142 -129c-80 0 -138 57 -138 127c0 42 22 79 36 103l86 140h108z" />
    <glyph glyph-name="seven.dnom" horiz-adv-x="285" 
d="M20 360h250v-50l-140 -310h-100l123 275h-133v85z" />
    <glyph glyph-name="eight.dnom" horiz-adv-x="324" 
d="M282 261c0 -24 -9 -45 -25 -60c27 -20 42 -53 42 -89c0 -67 -56 -122 -137 -122s-137 55 -137 122c0 36 18 68 44 89c-15 15 -27 38 -27 63c0 56 50 106 120 106c71 0 120 -52 120 -109zM120 114c0 -22 16 -39 42 -39s42 17 42 39s-16 40 -42 40s-42 -18 -42 -40z
M135 257c0 -15 11 -27 27 -27s27 12 27 27s-11 28 -27 28s-27 -13 -27 -28z" />
    <glyph glyph-name="nine.dnom" horiz-adv-x="330" 
d="M120 241c0 -24 17 -44 44 -44c14 0 26 5 34 11c7 9 12 21 12 33c0 25 -19 44 -46 44c-24 0 -44 -20 -44 -44zM75 0l73 118c-79 1 -123 59 -123 123c0 71 64 129 140 129c68 0 140 -48 140 -127c0 -42 -22 -79 -36 -103l-86 -140h-108z" />
    <glyph glyph-name="quotedbl.tf" 
d="M255 700l-20 -255h-90l-20 255h130zM465 700l-20 -255h-90l-20 255h130z" />
    <glyph glyph-name="numbersign.tf" 
d="M247 405l-30 -110h126l30 110h-126zM23 515h140l49 185h114l-49 -185h126l49 185h114l-49 -185h110v-110h-139l-31 -110h110l4 -110h-143l-49 -185h-114l49 185h-126l-49 -185h-114l49 185h-110v110h139l30 110h-110v110z" />
    <glyph glyph-name="dollar.tf" 
d="M50 95l88 92c40 -44 101 -77 165 -77c60 0 102 37 102 88c0 90 -130 101 -224 156c-55 32 -99 80 -99 159c0 97 70 163 156 187v115h120v-108c54 -6 106 -25 158 -63l-70 -100c-28 26 -75 46 -121 46c-51 0 -108 -22 -108 -76c0 -113 323 -78 323 -314
c0 -106 -81 -184 -182 -204v-111h-120v112c-69 13 -133 47 -188 98z" />
    <glyph glyph-name="quotesingle.tf" 
d="M360 700l-20 -255h-90l-20 255h130z" />
    <glyph glyph-name="plus.tf" 
d="M65 335h175v175h110v-175h175v-110h-175v-175h-110v175h-175v110z" />
    <glyph glyph-name="zero.tf" 
d="M405 350c0 132 -29 240 -110 240s-110 -108 -110 -240s29 -240 110 -240s110 108 110 240zM50 350c0 199 66 360 245 360s245 -161 245 -360s-66 -360 -245 -360s-245 161 -245 360z" />
    <glyph glyph-name="one.tf" 
d="M105 460v128l190 112h95v-580h155v-120h-490v120h200v424z" />
    <glyph glyph-name="two.tf" 
d="M189 511l-124 37c28 96 114 162 219 162c120 0 226 -89 226 -216c0 -85 -43 -147 -90 -201l-149 -173h244v-120h-455v80l246 279c54 61 69 101 69 137c0 49 -38 94 -91 94c-47 0 -81 -32 -95 -79z" />
    <glyph glyph-name="three.tf" 
d="M43 99l97 81c29 -41 77 -70 130 -70c66 0 131 52 131 127c0 73 -60 128 -138 128c-28 0 -58 -7 -84 -20v80l131 155h-234v120h425v-80l-127 -156c96 -37 162 -121 162 -227c0 -148 -116 -247 -261 -247c-87 0 -170 39 -232 109z" />
    <glyph glyph-name="four.tf" 
d="M375 700h95v-420h115v-120h-115v-160h-135v160h-325v80zM204 280h131v164z" />
    <glyph glyph-name="five.tf" 
d="M60 80l92 86c30 -32 73 -56 120 -56c31 0 61 11 84 32c24 22 39 54 39 90c0 38 -16 72 -43 95c-22 19 -52 28 -85 28c-34 0 -73 -13 -103 -38l-84 12l45 371h370v-120h-260l-11 -110c14 3 35 5 54 5c54 0 114 -13 163 -53c55 -44 89 -115 89 -190
c0 -138 -117 -242 -258 -242c-81 0 -151 29 -212 90z" />
    <glyph glyph-name="six.tf" 
d="M279 700h149l-132 -223h9c133 0 245 -101 245 -241c0 -136 -113 -246 -249 -246c-131 0 -256 93 -256 239c0 69 32 131 69 193zM217 340c-19 -26 -42 -64 -42 -111c0 -66 56 -119 124 -119c69 0 118 55 118 122s-50 125 -125 125c-25 0 -49 -5 -75 -17z" />
    <glyph glyph-name="seven.tf" 
d="M70 580v120h460v-80l-301 -620h-143l283 580h-299z" />
    <glyph glyph-name="eight.tf" 
d="M295 445c42 0 70 32 70 72s-28 73 -70 73s-70 -33 -70 -73s28 -72 70 -72zM295 110c66 0 115 47 115 107s-49 108 -115 108s-115 -48 -115 -108s49 -107 115 -107zM295 -10c-140 0 -250 100 -250 227c0 82 43 139 101 177c-30 27 -56 66 -56 123c0 107 87 193 205 193
s205 -86 205 -193c0 -57 -26 -96 -56 -123c58 -38 101 -95 101 -177c0 -127 -110 -227 -250 -227z" />
    <glyph glyph-name="nine.tf" 
d="M311 0h-149l132 223h-9c-133 0 -245 101 -245 241c0 136 113 246 249 246c131 0 256 -93 256 -239c0 -69 -32 -131 -69 -193zM373 360c19 26 42 64 42 111c0 66 -56 119 -124 119c-69 0 -118 -55 -118 -122s50 -125 125 -125c25 0 49 5 75 17z" />
    <glyph glyph-name="less.tf" 
d="M259 280l266 -116v-119l-460 200v70l460 200v-119z" />
    <glyph glyph-name="equal.tf" 
d="M65 230h460v-110h-460v110zM65 440h460v-110h-460v110z" />
    <glyph glyph-name="greater.tf" 
d="M65 164l266 116l-266 116v119l460 -200v-70l-460 -200v119z" />
    <glyph glyph-name="asciicircum.tf" 
d="M65 350l185 350h90l185 -350h-124l-106 201l-106 -201h-124z" />
    <glyph glyph-name="asciitilde.tf" 
d="M137 188l-107 27c17 83 71 162 168 162c96 0 141 -84 190 -84c34 0 57 35 65 79l107 -27c-17 -83 -71 -162 -168 -162c-96 0 -141 84 -190 84c-34 0 -57 -35 -65 -79z" />
    <glyph glyph-name="cent.tf" 
d="M445 174l100 -75c-46 -61 -101 -94 -168 -105v-109h-120v114c-114 27 -192 125 -192 243s79 215 192 244v114h120v-110c63 -12 117 -46 153 -92l-92 -81c-26 34 -65 58 -112 58c-75 0 -131 -59 -131 -133c0 -75 54 -132 132 -132c53 0 97 31 118 64z" />
    <glyph glyph-name="sterling.tf" 
d="M274 405h135v-110h-97c2 -14 4 -29 4 -47c0 -57 -21 -100 -40 -128h274v-120h-495v80c82 27 131 89 131 167c0 15 -1 30 -5 48h-111v110h66c-12 29 -20 62 -20 103c0 112 97 202 212 202c101 0 168 -56 198 -136l-113 -44c-12 32 -41 60 -81 60c-48 0 -86 -35 -86 -82
c0 -35 13 -68 28 -103z" />
    <glyph glyph-name="currency.tf" 
d="M84 351c0 36 9 70 26 100l-80 80l85 85l80 -80c30 17 64 26 100 26c37 0 71 -9 101 -26l79 80l85 -85l-79 -80c16 -30 25 -64 25 -100c0 -37 -9 -71 -25 -101l79 -79l-85 -85l-79 79c-30 -16 -64 -25 -101 -25c-36 0 -70 9 -100 25l-80 -79l-85 85l80 79
c-17 30 -26 64 -26 101zM214 351c0 -45 36 -81 81 -81s81 36 81 81s-36 81 -81 81s-81 -36 -81 -81z" />
    <glyph glyph-name="yen.tf" 
d="M34 215v110h188l-32 50h-156v110h87l-134 215h154l154 -246l153 246h154l-135 -215h88v-110h-157l-31 -50h188v-110h-193v-215h-135v215h-193z" />
    <glyph glyph-name="section.tf" 
d="M550 215c0 -61 -28 -113 -70 -150c18 -26 30 -58 30 -98c0 -125 -115 -197 -231 -197c-71 0 -137 17 -203 66l70 100c28 -26 75 -46 121 -46c51 0 108 22 108 76c0 113 -328 73 -328 299c0 61 27 112 70 149c-19 26 -30 58 -30 99c0 125 115 197 231 197
c71 0 137 -17 203 -66l-70 -100c-28 26 -75 46 -121 46c-51 0 -108 -22 -108 -76c0 -113 328 -73 328 -299zM415 213c0 77 -107 85 -196 124c-24 -16 -37 -41 -37 -70c0 -78 106 -85 196 -125c23 16 37 41 37 71z" />
    <glyph glyph-name="logicalnot.tf" 
d="M525 440v-320h-110v210h-350v110h460z" />
    <glyph glyph-name="plusminus.tf" 
d="M240 294h-175v110h175v126h110v-126h175v-110h-175v-126h-110v126zM65 140h460v-110h-460v110z" />
    <glyph glyph-name="mu.tf" 
d="M400 485h130v-485h-125v39c-38 -34 -84 -49 -131 -49c-30 0 -61 8 -84 22v-252h-130v725h130v-262c0 -44 9 -66 24 -83c20 -22 48 -30 73 -30c55 0 95 37 113 60v315z" />
    <glyph glyph-name="multiply.tf" 
d="M150 503l145 -145l145 145l78 -78l-145 -145l145 -145l-78 -78l-145 145l-145 -145l-78 78l145 145l-145 145z" />
    <glyph glyph-name="divide.tf" 
d="M65 335h460v-110h-460v110zM220 457c0 41 34 73 75 73s75 -32 75 -73s-34 -73 -75 -73s-75 32 -75 73zM220 103c0 41 34 73 75 73s75 -32 75 -73s-34 -73 -75 -73s-75 32 -75 73z" />
    <glyph glyph-name="florin.tf" 
d="M-75 -229l33 108c13 -5 38 -14 66 -14c60 0 101 33 120 93c25 80 38 212 53 337h-160v110h174c8 54 16 103 27 138c39 129 131 177 243 177c28 0 70 -8 99 -21l-33 -108c-13 5 -38 14 -66 14c-60 0 -101 -33 -120 -93c-10 -30 -17 -66 -24 -107h160v-110h-176
c-17 -137 -30 -288 -54 -368c-39 -129 -131 -177 -243 -177c-28 0 -70 8 -99 21z" />
    <glyph glyph-name="pi.tf" 
d="M142 0v359c-24 -3 -48 -17 -63 -36l-70 72c20 30 48 49 81 61c21 8 54 14 93 14h398v-110h-100v-207c0 -42 7 -60 34 -83l-85 -80c-60 45 -69 92 -69 171v199h-99v-360h-120z" />
    <glyph glyph-name="Euro.tf" 
d="M-25 375v110h91c45 132 156 225 299 225c98 0 177 -45 232 -117l-97 -79c-32 47 -78 76 -133 76c-68 0 -125 -39 -156 -105h235v-110h-265c-1 -8 -1 -17 -1 -25c0 -9 0 -17 1 -25h265v-110h-237c28 -66 88 -105 158 -105c67 0 120 36 153 91l100 -75
c-59 -81 -138 -136 -253 -136c-146 0 -257 90 -302 225h-90v110h70v50h-70z" />
    <glyph glyph-name="partialdiff.tf" 
d="M282 494l-154 216h151l185 -257c43 -59 89 -134 89 -211c0 -139 -110 -252 -256 -252c-148 0 -260 111 -260 252c0 135 101 247 245 252zM425 242c0 45 -20 82 -37 103l-9 11c-18 12 -44 19 -74 19c-82 0 -138 -55 -138 -133c0 -74 54 -132 130 -132c75 0 128 60 128 132
z" />
    <glyph glyph-name="Delta.tf" 
d="M10 70l240 630h90l240 -630v-70h-570v70zM295 510l-152 -400h304z" />
    <glyph glyph-name="product.tf" 
d="M15 700h560v-110h-100v-590h-120v590h-120v-590h-120v590h-100v110z" />
    <glyph glyph-name="summation.tf" 
d="M405 326l-206 -216h251v100h110v-210h-550v70l274 290l-264 270v70h530v-210h-110v100h-227l192 -194v-70z" />
    <glyph glyph-name="minus.tf" 
d="M65 335h460v-110h-460v110z" />
    <glyph glyph-name="radical.tf" 
d="M-20 485h167l141 -306l186 521h116l-249 -700h-90l-175 375h-96v110z" />
    <glyph glyph-name="integral.tf" 
d="M-75 -229l33 108c13 -5 38 -14 66 -14c60 0 101 33 120 93c45 143 55 455 94 585c39 129 131 177 243 177c28 0 70 -8 99 -21l-33 -108c-13 5 -38 14 -66 14c-60 0 -101 -33 -120 -93c-45 -143 -55 -455 -94 -585c-39 -129 -131 -177 -243 -177c-28 0 -70 8 -99 21z" />
    <glyph glyph-name="approxequal.tf" 
d="M137 78l-107 27c17 83 71 162 168 162c96 0 141 -84 190 -84c34 0 57 35 65 79l107 -27c-17 -83 -71 -162 -168 -162c-96 0 -141 84 -190 84c-34 0 -57 -35 -65 -79zM137 298l-107 27c17 83 71 162 168 162c96 0 141 -84 190 -84c34 0 57 35 65 79l107 -27
c-17 -83 -71 -162 -168 -162c-96 0 -141 84 -190 84c-34 0 -57 -35 -65 -79z" />
    <glyph glyph-name="notequal.tf" 
d="M515 550l-62 -110h72v-110h-134l-56 -100h190v-110h-252l-62 -110h-126l62 110h-82v110h144l56 100h-200v110h262l62 110h126z" />
    <glyph glyph-name="lessequal.tf" 
d="M65 140h460v-110h-460v110zM525 419l-218 -70l218 -70v-116l-460 151v70l460 151v-116z" />
    <glyph glyph-name="greaterequal.tf" 
d="M65 140h460v-110h-460v110zM283 349l-218 70v116l460 -151v-70l-460 -151v116z" />
    <glyph glyph-name="lozenge.tf" 
d="M250 0l-200 315v70l200 315h90l200 -315v-70l-200 -315h-90zM157 350l138 -216l137 216l-137 215z" />
    <glyph glyph-name="parenleft.case" horiz-adv-x="455" 
d="M260 350c0 -143 43 -283 119 -392l-97 -68c-91 130 -142 290 -142 460s51 330 142 460l97 -68c-76 -109 -119 -249 -119 -392z" />
    <glyph glyph-name="parenright.case" horiz-adv-x="455" 
d="M195 350c0 143 -43 283 -119 392l97 68c91 -130 142 -290 142 -460s-51 -330 -142 -460l-97 68c76 109 119 249 119 392z" />
    <glyph glyph-name="hyphen.case" horiz-adv-x="470" 
d="M70 430h330v-110h-330v110z" />
    <glyph glyph-name="at.case" horiz-adv-x="1000" 
d="M382 350c0 -63 47 -115 115 -115c39 0 74 17 91 38c-1 13 -2 27 -2 44v112c-18 20 -52 36 -89 36c-68 0 -115 -52 -115 -115zM745 135c-46 0 -89 21 -118 53c-24 -22 -69 -53 -137 -53c-93 0 -218 73 -218 215c0 137 117 215 209 215c36 0 74 -8 109 -31v21h106v-241
c0 -31 3 -44 10 -56c8 -13 21 -23 42 -23c60 0 72 84 72 140c0 179 -150 305 -316 305c-179 0 -324 -146 -324 -330c0 -182 143 -330 320 -330c74 0 144 22 198 65l62 -91c-68 -51 -155 -84 -253 -84c-245 0 -437 196 -437 440c0 242 189 440 433 440
c226 0 427 -175 427 -415c0 -129 -57 -240 -185 -240z" />
    <glyph glyph-name="bracketleft.case" horiz-adv-x="455" 
d="M140 -100v900h275v-115h-155v-670h155v-115h-275z" />
    <glyph glyph-name="bracketright.case" horiz-adv-x="455" 
d="M315 800v-900h-275v115h155v670h-155v115h275z" />
    <glyph glyph-name="braceleft.case" horiz-adv-x="455" 
d="M187 350c36 -13 73 -32 73 -117c0 -53 -10 -101 -10 -150c0 -53 33 -68 76 -68h39v-115h-30c-129 0 -205 60 -205 179c0 58 10 110 10 163c0 50 -35 68 -90 68v80c55 0 90 18 90 68c0 53 -10 105 -10 163c0 119 76 179 205 179h30v-115h-39c-43 0 -76 -15 -76 -68
c0 -49 10 -97 10 -150c0 -85 -37 -104 -73 -117z" />
    <glyph glyph-name="bar.case" horiz-adv-x="240" 
d="M180 800v-900h-120v900h120z" />
    <glyph glyph-name="braceright.case" horiz-adv-x="455" 
d="M268 350c-36 13 -73 32 -73 117c0 53 10 101 10 150c0 53 -33 68 -76 68h-39v115h30c129 0 205 -60 205 -179c0 -58 -10 -110 -10 -163c0 -50 35 -68 90 -68v-80c-55 0 -90 -18 -90 -68c0 -53 10 -105 10 -163c0 -119 -76 -179 -205 -179h-30v115h39c43 0 76 15 76 68
c0 49 -10 97 -10 150c0 85 37 104 73 117z" />
    <glyph glyph-name="guillemotleft.case" horiz-adv-x="659" 
d="M196 527h143l-156 -190l156 -190h-143l-126 155v70zM476 527h143l-156 -190l156 -190h-143l-126 155v70z" />
    <glyph glyph-name="periodcentered.case" horiz-adv-x="375" 
d="M100 350c0 49 38 86 87 86s88 -37 88 -86s-39 -85 -88 -85s-87 36 -87 85z" />
    <glyph glyph-name="guillemotright.case" horiz-adv-x="659" 
d="M320 527h143l126 -155v-70l-126 -155h-143l156 190zM40 527h143l126 -155v-70l-126 -155h-143l156 190z" />
    <glyph glyph-name="endash.case" horiz-adv-x="520" 
d="M15 430h490v-110h-490v110z" />
    <glyph glyph-name="emdash.case" horiz-adv-x="820" 
d="M15 430h790v-110h-790v110z" />
    <glyph glyph-name="bullet.case" horiz-adv-x="600" 
d="M80 350c0 121 99 220 220 220s220 -99 220 -220s-99 -220 -220 -220s-220 99 -220 220z" />
    <glyph glyph-name="guilsinglleft.case" horiz-adv-x="379" 
d="M196 527h143l-156 -190l156 -190h-143l-126 155v70z" />
    <glyph glyph-name="guilsinglright.case" horiz-adv-x="379" 
d="M40 527h143l126 -155v-70l-126 -155h-143l156 190z" />
    <glyph glyph-name="zero.zero" horiz-adv-x="600" 
d="M55 350c0 199 66 360 245 360s245 -161 245 -360s-66 -360 -245 -360s-245 161 -245 360zM300 590c-81 0 -110 -108 -110 -240c0 -23 0 -45 2 -65l164 281c-15 15 -33 24 -56 24zM410 350c0 22 -1 43 -3 63l-163 -280c15 -15 33 -23 56 -23c81 0 110 108 110 240z" />
    <glyph glyph-name="uni2070.zero" horiz-adv-x="338" 
d="M30 520c0 100 35 190 139 190c108 0 139 -90 139 -190s-31 -190 -139 -190c-104 0 -139 90 -139 190zM169 420c32 0 39 48 39 105l-57 -98c5 -5 11 -7 18 -7zM130 517l56 97c-5 4 -11 6 -17 6c-32 0 -39 -48 -39 -103z" />
    <glyph glyph-name="uni2080.zero" horiz-adv-x="338" 
d="M30 180c0 100 35 190 139 190c108 0 139 -90 139 -190s-31 -190 -139 -190c-104 0 -139 90 -139 190zM169 80c32 0 39 48 39 105l-57 -98c5 -5 11 -7 18 -7zM130 177l56 97c-5 4 -11 6 -17 6c-32 0 -39 -48 -39 -103z" />
    <glyph glyph-name="zero.numr.zero" horiz-adv-x="338" 
d="M30 520c0 100 35 190 139 190c108 0 139 -90 139 -190s-31 -190 -139 -190c-104 0 -139 90 -139 190zM169 420c32 0 39 48 39 105l-57 -98c5 -5 11 -7 18 -7zM130 517l56 97c-5 4 -11 6 -17 6c-32 0 -39 -48 -39 -103z" />
    <glyph glyph-name="zero.dnom.zero" horiz-adv-x="338" 
d="M30 180c0 100 35 190 139 190c108 0 139 -90 139 -190s-31 -190 -139 -190c-104 0 -139 90 -139 190zM169 80c32 0 39 48 39 105l-57 -98c5 -5 11 -7 18 -7zM130 177l56 97c-5 4 -11 6 -17 6c-32 0 -39 -48 -39 -103z" />
    <glyph glyph-name="zero.tf.zero" 
d="M50 350c0 199 66 360 245 360s245 -161 245 -360s-66 -360 -245 -360s-245 161 -245 360zM295 590c-81 0 -110 -108 -110 -240c0 -23 0 -45 2 -65l164 281c-15 15 -33 24 -56 24zM405 350c0 22 -1 43 -3 63l-163 -280c15 -15 33 -23 56 -23c81 0 110 108 110 240z" />
    <glyph glyph-name="a.ss01" horiz-adv-x="535" 
d="M340 150v50c-21 12 -44 15 -65 15c-39 0 -100 -13 -100 -63c0 -32 30 -52 65 -52c36 0 72 16 100 50zM470 0h-125v39c-17 -22 -65 -49 -125 -49c-99 0 -175 71 -175 162c0 106 93 168 199 168c32 0 67 -7 96 -21c0 65 -48 86 -99 86c-47 0 -100 -22 -129 -40l-42 100
c32 21 100 50 183 50c69 0 132 -25 173 -76c28 -35 44 -73 44 -149v-270z" />
    <glyph glyph-name="agrave.ss01" horiz-adv-x="535" 
d="M120 720h140l70 -160h-90zM340 150v50c-21 12 -44 15 -65 15c-39 0 -100 -13 -100 -63c0 -32 30 -52 65 -52c36 0 72 16 100 50zM470 0h-125v39c-17 -22 -65 -49 -125 -49c-99 0 -175 71 -175 162c0 106 93 168 199 168c32 0 67 -7 96 -21c0 65 -48 86 -99 86
c-47 0 -100 -22 -129 -40l-42 100c32 21 100 50 183 50c69 0 132 -25 173 -76c28 -35 44 -73 44 -149v-270z" />
    <glyph glyph-name="aacute.ss01" horiz-adv-x="535" 
d="M280 720h140l-120 -160h-90zM340 150v50c-21 12 -44 15 -65 15c-39 0 -100 -13 -100 -63c0 -32 30 -52 65 -52c36 0 72 16 100 50zM470 0h-125v39c-17 -22 -65 -49 -125 -49c-99 0 -175 71 -175 162c0 106 93 168 199 168c32 0 67 -7 96 -21c0 65 -48 86 -99 86
c-47 0 -100 -22 -129 -40l-42 100c32 21 100 50 183 50c69 0 132 -25 173 -76c28 -35 44 -73 44 -149v-270z" />
    <glyph glyph-name="acircumflex.ss01" horiz-adv-x="535" 
d="M195 720h140l100 -160h-90l-80 90l-80 -90h-90zM340 150v50c-21 12 -44 15 -65 15c-39 0 -100 -13 -100 -63c0 -32 30 -52 65 -52c36 0 72 16 100 50zM470 0h-125v39c-17 -22 -65 -49 -125 -49c-99 0 -175 71 -175 162c0 106 93 168 199 168c32 0 67 -7 96 -21
c0 65 -48 86 -99 86c-47 0 -100 -22 -129 -40l-42 100c32 21 100 50 183 50c69 0 132 -25 173 -76c28 -35 44 -73 44 -149v-270z" />
    <glyph glyph-name="atilde.ss01" horiz-adv-x="535" 
d="M340 150v50c-21 12 -44 15 -65 15c-39 0 -100 -13 -100 -63c0 -32 30 -52 65 -52c36 0 72 16 100 50zM470 0h-125v39c-17 -22 -65 -49 -125 -49c-99 0 -175 71 -175 162c0 106 93 168 199 168c32 0 67 -7 96 -21c0 65 -48 86 -99 86c-47 0 -100 -22 -129 -40l-42 100
c32 21 100 50 183 50c69 0 132 -25 173 -76c28 -35 44 -73 44 -149v-270zM377 720l80 -16c0 -72 -39 -134 -111 -134c-60 0 -106 50 -149 50c-24 0 -37 -22 -40 -50l-80 16c0 72 39 134 111 134c60 0 106 -50 149 -50c24 0 37 22 40 50z" />
    <glyph glyph-name="adieresis.ss01" horiz-adv-x="535" 
d="M87 642c0 44 36 78 80 78s80 -34 80 -78s-36 -78 -80 -78s-80 34 -80 78zM297 642c0 44 36 78 80 78s80 -34 80 -78s-36 -78 -80 -78s-80 34 -80 78zM340 150v50c-21 12 -44 15 -65 15c-39 0 -100 -13 -100 -63c0 -32 30 -52 65 -52c36 0 72 16 100 50zM470 0h-125v39
c-17 -22 -65 -49 -125 -49c-99 0 -175 71 -175 162c0 106 93 168 199 168c32 0 67 -7 96 -21c0 65 -48 86 -99 86c-47 0 -100 -22 -129 -40l-42 100c32 21 100 50 183 50c69 0 132 -25 173 -76c28 -35 44 -73 44 -149v-270z" />
    <glyph glyph-name="aring.ss01" horiz-adv-x="535" 
d="M155 650c0 61 49 110 110 110s110 -49 110 -110s-49 -110 -110 -110s-110 49 -110 110zM235 650c0 -17 13 -30 30 -30s30 13 30 30s-13 30 -30 30s-30 -13 -30 -30zM340 150v50c-21 12 -44 15 -65 15c-39 0 -100 -13 -100 -63c0 -32 30 -52 65 -52c36 0 72 16 100 50z
M470 0h-125v39c-17 -22 -65 -49 -125 -49c-99 0 -175 71 -175 162c0 106 93 168 199 168c32 0 67 -7 96 -21c0 65 -48 86 -99 86c-47 0 -100 -22 -129 -40l-42 100c32 21 100 50 183 50c69 0 132 -25 173 -76c28 -35 44 -73 44 -149v-270z" />
    <glyph glyph-name="ae.ss01" horiz-adv-x="835" 
d="M467 305h200c-4 43 -43 85 -96 85c-54 0 -98 -41 -104 -85zM340 150v50c-21 12 -44 15 -65 15c-39 0 -100 -13 -100 -63c0 -32 30 -52 65 -52c36 0 72 16 100 50zM112 345l-42 100c32 21 100 50 183 50c64 0 119 -22 160 -67c38 41 92 67 158 67c134 0 229 -113 229 -248
c0 -13 -1 -26 -3 -37h-336c7 -68 62 -115 131 -115c55 0 99 31 122 56l74 -74c-47 -56 -124 -87 -199 -87c-52 0 -98 12 -135 36v-26h-109v39c-17 -22 -65 -49 -125 -49c-99 0 -175 71 -175 162c0 106 93 168 199 168c32 0 67 -7 96 -21c0 65 -48 86 -99 86
c-47 0 -100 -22 -129 -40z" />
    <glyph glyph-name="f.ss02" horiz-adv-x="500" 
d="M475 694l-45 -104c-17 8 -42 15 -64 15c-25 0 -52 -7 -69 -26c-13 -14 -22 -33 -22 -69v-25h190v-110h-190v-375h-130v375h-125v110h125v10c0 79 21 131 59 167c39 37 96 58 162 58c37 0 81 -11 109 -26z" />
    <glyph glyph-name="j.ss02" horiz-adv-x="320" 
d="M-75 -223l51 102c10 -5 33 -14 58 -14c27 0 52 9 66 26c10 12 15 29 15 59v535h130v-510c0 -78 -15 -122 -43 -155c-36 -43 -93 -70 -157 -70c-43 0 -90 10 -120 27zM95 657c0 47 38 83 85 83s85 -36 85 -83s-38 -83 -85 -83s-85 36 -85 83z" />
    <glyph glyph-name="r.ss02" horiz-adv-x="450" 
d="M435 470l-40 -113c-18 10 -44 18 -72 18c-57 0 -102 -41 -118 -70v-305h-130v485h125v-49c26 33 77 59 128 59c36 0 73 -7 107 -25z" />
    <glyph glyph-name="t.ss02" horiz-adv-x="525" 
d="M435 120l46 -104c-31 -13 -64 -26 -122 -26c-63 0 -114 22 -151 57c-38 36 -53 89 -53 168v160h-135v110h135v135h130v-135h205v-110h-205v-175c0 -36 4 -55 17 -69c16 -18 40 -26 65 -26c23 0 50 7 68 15z" />
    <glyph glyph-name="uniFB00.ss02" horiz-adv-x="870" 
d="M515 485v10c0 79 21 131 59 167c39 37 96 58 162 58c37 0 81 -11 109 -26l-45 -104c-17 8 -42 15 -64 15c-25 0 -52 -7 -69 -26c-13 -14 -22 -33 -22 -69v-25h190v-110h-190v-375h-130v375h-240v-375h-130v375h-125v110h125v10c0 79 21 131 59 167c39 37 96 58 162 58
c31 0 67 -7 94 -19l-38 -107c-16 6 -37 11 -56 11c-25 0 -52 -7 -69 -26c-13 -14 -22 -33 -22 -69v-25h240z" />
    <glyph glyph-name="fi.ss02" horiz-adv-x="720" 
d="M460 701l-38 -107c-16 6 -37 11 -56 11c-25 0 -52 -7 -69 -26c-13 -14 -22 -33 -22 -69v-25h370v-485h-130v375h-240v-375h-130v375h-125v110h125v10c0 79 21 131 59 167c39 37 96 58 162 58c31 0 67 -7 94 -19zM495 657c0 47 38 83 85 83s85 -36 85 -83s-38 -83 -85 -83
s-85 36 -85 83z" />
    <glyph glyph-name="fl.ss02" horiz-adv-x="720" 
d="M645 710v-710h-130v375h-240v-375h-130v375h-125v110h125v10c0 79 21 131 59 167c39 37 96 58 162 58c31 0 67 -7 94 -19l-38 -107c-16 6 -37 11 -56 11c-25 0 -52 -7 -69 -26c-13 -14 -22 -33 -22 -69v-25h240v225h130z" />
    <glyph glyph-name="uniFB03.ss02" horiz-adv-x="1090" 
d="M515 485v10c0 79 21 131 59 167c39 37 96 58 162 58c31 0 67 -7 94 -19l-38 -107c-16 6 -37 11 -56 11c-25 0 -52 -7 -69 -26c-13 -14 -22 -33 -22 -69v-25h370v-485h-130v375h-240v-375h-130v375h-240v-375h-130v375h-125v110h125v10c0 79 21 131 59 167
c39 37 96 58 162 58c31 0 67 -7 94 -19l-38 -107c-16 6 -37 11 -56 11c-25 0 -52 -7 -69 -26c-13 -14 -22 -33 -22 -69v-25h240zM865 657c0 47 38 83 85 83s85 -36 85 -83s-38 -83 -85 -83s-85 36 -85 83z" />
    <glyph glyph-name="uniFB04.ss02" horiz-adv-x="1090" 
d="M645 485h240v225h130v-710h-130v375h-240v-375h-130v375h-240v-375h-130v375h-125v110h125v10c0 79 21 131 59 167c39 37 96 58 162 58c31 0 67 -7 94 -19l-38 -107c-16 6 -37 11 -56 11c-25 0 -52 -7 -69 -26c-13 -14 -22 -33 -22 -69v-25h240v10c0 79 21 131 59 167
c39 37 96 58 162 58c31 0 67 -7 94 -19l-38 -107c-16 6 -37 11 -56 11c-25 0 -52 -7 -69 -26c-13 -14 -22 -33 -22 -69v-25z" />
    <glyph glyph-name="parenleft.ss03" horiz-adv-x="455" 
d="M260 350c0 -109 25 -217 71 -310l-108 -50c-54 108 -83 231 -83 360s29 252 83 360l108 -50c-46 -93 -71 -201 -71 -310z" />
    <glyph glyph-name="parenright.ss03" horiz-adv-x="455" 
d="M195 350c0 109 -25 217 -71 310l108 50c54 -108 83 -231 83 -360s-29 -252 -83 -360l-108 50c46 93 71 201 71 310z" />
    <glyph glyph-name="bracketleft.ss03" horiz-adv-x="455" 
d="M140 0v700h275v-115h-155v-470h155v-115h-275z" />
    <glyph glyph-name="bracketright.ss03" horiz-adv-x="455" 
d="M315 700v-700h-275v115h155v470h-155v115h275z" />
    <glyph glyph-name="braceleft.ss03" horiz-adv-x="455" 
d="M187 350c34 -12 73 -30 73 -104c0 -22 -5 -44 -5 -69c0 -48 35 -62 76 -62h34v-115h-25c-52 0 -95 7 -129 26c-47 27 -76 75 -76 138c0 25 5 57 5 78c0 50 -35 68 -90 68v80c55 0 90 18 90 68c0 21 -5 53 -5 78c0 63 29 111 76 138c34 19 77 26 129 26h25v-115h-34
c-41 0 -76 -14 -76 -62c0 -25 5 -47 5 -69c0 -74 -39 -92 -73 -104z" />
    <glyph glyph-name="bar.ss03" horiz-adv-x="240" 
d="M180 700v-700h-120v700h120z" />
    <glyph glyph-name="braceright.ss03" horiz-adv-x="455" 
d="M268 350c-34 12 -73 30 -73 104c0 22 5 44 5 69c0 48 -35 62 -76 62h-34v115h25c52 0 95 -7 129 -26c47 -27 76 -75 76 -138c0 -25 -5 -57 -5 -78c0 -50 35 -68 90 -68v-80c-55 0 -90 -18 -90 -68c0 -21 5 -53 5 -78c0 -63 -29 -111 -76 -138c-34 -19 -77 -26 -129 -26
h-25v115h34c41 0 76 14 76 62c0 25 -5 47 -5 69c0 74 39 92 73 104z" />
    <glyph glyph-name="endash.ss04" horiz-adv-x="1120" 
d="M15 315h1090v-110h-1090v110z" />
    <glyph glyph-name="emdash.ss04" horiz-adv-x="1420" 
d="M15 315h1390v-110h-1390v110z" />
    <glyph glyph-name="endash.case.ss04" horiz-adv-x="1120" 
d="M15 430h1090v-110h-1090v110z" />
    <glyph glyph-name="emdash.case.ss04" horiz-adv-x="1420" 
d="M15 430h1390v-110h-1390v110z" />
    <glyph glyph-name="asterisk.ss05" horiz-adv-x="516" 
d="M476 542l-108 -62l108 -62l-55 -96l-108 63v-125h-110v125l-108 -63l-55 96l107 62l-107 62l55 96l108 -62v124h110v-124l108 62z" />
    <glyph glyph-name="asterisk.ss06" horiz-adv-x="516" 
d="M85 626l88 64l85 -117l85 117l88 -64l-85 -117l138 -45l-34 -104l-137 45v-145h-110v145l-137 -44l-34 103l138 45z" />
    <glyph glyph-name="asterisk.ss07" horiz-adv-x="516" 
d="M320 262l-62 108l-62 -108l-96 55l63 108h-125v110h125l-63 108l96 55l62 -107l62 107l96 -55l-62 -108h124v-110h-124l62 -108z" />
    <glyph glyph-name="asterisk.ss08" horiz-adv-x="516" 
d="M320 262l-62 107l96 55l62 -107zM416 643l-62 -107l-96 55l62 107zM38 425v110h124v-110h-124zM196 262l-96 55l62 107l95 -55zM100 643l96 55l61 -107l-95 -55zM478 425h-123v110h123v-110z" />
    <glyph glyph-name="asterisk.ss09" horiz-adv-x="516" 
d="M313 260h-110v164h110v-164zM38 425v110h164v-110h-164zM478 425h-164v110h164v-110zM313 700v-164h-110v164h110zM115 545l-66 67l77 77l67 -66zM323 623l67 66l77 -77l-66 -67zM49 348l66 67l78 -78l-67 -66zM390 271l-67 66l78 78l66 -67z" />
    <glyph glyph-name="f_f_i.ss02" horiz-adv-x="1090" 
d="M515 485v10c0 79 21 131 59 167c39 37 96 58 162 58c31 0 67 -7 94 -19l-38 -107c-16 6 -37 11 -56 11c-25 0 -52 -7 -69 -26c-13 -14 -22 -33 -22 -69v-25h370v-485h-130v375h-240v-375h-130v375h-240v-375h-130v375h-125v110h125v10c0 79 21 131 59 167
c39 37 96 58 162 58c31 0 67 -7 94 -19l-38 -107c-16 6 -37 11 -56 11c-25 0 -52 -7 -69 -26c-13 -14 -22 -33 -22 -69v-25h240zM865 657c0 47 38 83 85 83s85 -36 85 -83s-38 -83 -85 -83s-85 36 -85 83z" />
    <glyph glyph-name="f_f.ss02" horiz-adv-x="870" 
d="M515 485v10c0 79 21 131 59 167c39 37 96 58 162 58c37 0 81 -11 109 -26l-45 -104c-17 8 -42 15 -64 15c-25 0 -52 -7 -69 -26c-13 -14 -22 -33 -22 -69v-25h190v-110h-190v-375h-130v375h-240v-375h-130v375h-125v110h125v10c0 79 21 131 59 167c39 37 96 58 162 58
c31 0 67 -7 94 -19l-38 -107c-16 6 -37 11 -56 11c-25 0 -52 -7 -69 -26c-13 -14 -22 -33 -22 -69v-25h240z" />
    <glyph glyph-name="f_l.ss02" horiz-adv-x="720" 
d="M645 710v-710h-130v375h-240v-375h-130v375h-125v110h125v10c0 79 21 131 59 167c39 37 96 58 162 58c31 0 67 -7 94 -19l-38 -107c-16 6 -37 11 -56 11c-25 0 -52 -7 -69 -26c-13 -14 -22 -33 -22 -69v-25h240v225h130z" />
    <glyph glyph-name="f_i.ss02" horiz-adv-x="720" 
d="M460 701l-38 -107c-16 6 -37 11 -56 11c-25 0 -52 -7 -69 -26c-13 -14 -22 -33 -22 -69v-25h370v-485h-130v375h-240v-375h-130v375h-125v110h125v10c0 79 21 131 59 167c39 37 96 58 162 58c31 0 67 -7 94 -19zM495 657c0 47 38 83 85 83s85 -36 85 -83s-38 -83 -85 -83
s-85 36 -85 83z" />
    <glyph glyph-name="f_f_l.ss02" horiz-adv-x="1090" 
d="M645 485h240v225h130v-710h-130v375h-240v-375h-130v375h-240v-375h-130v375h-125v110h125v10c0 79 21 131 59 167c39 37 96 58 162 58c31 0 67 -7 94 -19l-38 -107c-16 6 -37 11 -56 11c-25 0 -52 -7 -69 -26c-13 -14 -22 -33 -22 -69v-25h240v10c0 79 21 131 59 167
c39 37 96 58 162 58c31 0 67 -7 94 -19l-38 -107c-16 6 -37 11 -56 11c-25 0 -52 -7 -69 -26c-13 -14 -22 -33 -22 -69v-25z" />
    <glyph glyph-name="uni00AD.case" horiz-adv-x="470" 
d="M70 405h330v-110h-330v110z" />
    <glyph glyph-name="space.frac" horiz-adv-x="54" 
 />
    <glyph glyph-name="uni200B" unicode="&#x200b;" horiz-adv-x="0" 
 />
    <glyph glyph-name="uni2008" unicode="&#x2008;" horiz-adv-x="375" 
 />
    <glyph glyph-name="uni2007" unicode="&#x2007;" horiz-adv-x="600" 
 />
    <glyph glyph-name="uni2007.tf" 
 />
    </font>
</defs>
</svg>
